<svg width="288" height="57" viewBox="0 0 288 58" fill="none" xmlns="http://www.w3.org/2000/svg">
<rect width="288" height="44" fill="white"/>
<path d="M20.352 27H24.304C26.267 27 27.567 26.038 27.567 24.517C27.567 23.23 26.605 22.606 25.513 22.32C26.254 22.021 27.06 21.397 27.06 20.162C27.06 18.784 25.89 17.9 24.109 17.9H20.352V27ZM21.028 26.376V22.723H24.109C25.903 22.723 26.878 23.373 26.878 24.491C26.878 25.661 25.89 26.376 24.33 26.376H21.028ZM21.028 22.099V18.524H24.096C25.552 18.524 26.371 19.2 26.371 20.201C26.371 21.436 25.396 22.099 24.031 22.099H21.028ZM31.6058 27.156C32.8668 27.156 33.6858 26.532 34.1408 25.895V27H34.7648V22.866C34.7648 22.047 34.5308 21.436 34.0888 20.994C33.6078 20.513 32.8928 20.266 31.9958 20.266C31.0858 20.266 30.3708 20.5 29.6428 20.838L29.8768 21.397C30.4878 21.085 31.1508 20.864 31.9568 20.864C33.3218 20.864 34.1408 21.553 34.1408 22.892V23.178C33.5038 23.009 32.8668 22.892 31.9438 22.892C30.2278 22.892 29.0448 23.672 29.0448 25.05C29.0448 26.454 30.2408 27.156 31.6058 27.156ZM31.6448 26.558C30.5008 26.558 29.7338 25.999 29.7338 25.037C29.7338 24.088 30.5008 23.464 31.9048 23.464C32.8538 23.464 33.5948 23.62 34.1538 23.763V24.517C34.1538 25.726 32.9968 26.558 31.6448 26.558ZM37.0557 27H46.2987V20.37H45.6617V26.428H41.9957V20.37H41.3587V26.428H37.6927V20.37H37.0557V27ZM51.5177 27.156C52.7917 27.156 53.5847 26.636 54.2607 25.908L53.8187 25.518C53.2727 26.103 52.5707 26.558 51.5437 26.558C50.2437 26.558 49.0607 25.596 48.9437 23.945H54.4427C54.4557 23.841 54.4557 23.802 54.4557 23.685C54.4557 21.722 53.2727 20.214 51.4137 20.214C49.6197 20.214 48.2677 21.748 48.2677 23.672C48.2677 25.765 49.7757 27.156 51.5177 27.156ZM48.9437 23.373C49.0607 21.904 50.0747 20.799 51.3877 20.799C52.9087 20.799 53.6757 22.034 53.7667 23.373H48.9437ZM60.2119 27H60.8489L65.3469 21.215V27H65.9839V20.37H65.3469L60.8489 26.155V20.37H60.2119V27ZM68.4004 27H69.0114V21.475L71.6504 25.141L74.3154 21.475V27H74.9524V20.37H74.3804L71.6764 24.179L68.9724 20.37H68.4004V27ZM76.843 27H77.623L79.599 24.452H81.783V27H82.42V20.37H79.456C77.935 20.37 77.025 21.176 77.025 22.346C77.025 23.451 77.883 24.166 78.936 24.361L76.843 27ZM79.573 23.88C78.507 23.88 77.714 23.308 77.714 22.385C77.714 21.514 78.39 20.942 79.547 20.942H81.783V23.88H79.573Z" fill="#B8C1CA"/>
</svg>
