<svg width="288" height="100" viewBox="0 0 288 99" fill="none" xmlns="http://www.w3.org/2000/svg">
<rect width="288" height="100" fill="white"/>
<path d="M20.352 27H21.028V24.686L23.29 22.398L27.034 27H27.918L23.771 21.917L27.749 17.9H26.826L21.028 23.88V17.9H20.352V27ZM32.44 27.156C34.416 27.156 35.859 25.544 35.859 23.685C35.859 21.8 34.429 20.214 32.466 20.214C30.49 20.214 29.047 21.826 29.047 23.685C29.047 25.57 30.477 27.156 32.44 27.156ZM32.466 26.558C30.932 26.558 29.736 25.284 29.736 23.685C29.736 22.099 30.945 20.812 32.44 20.812C33.935 20.812 35.17 22.086 35.17 23.685C35.17 25.271 33.935 26.558 32.466 26.558ZM37.8174 27H38.4284V21.475L41.0674 25.141L43.7324 21.475V27H44.3694V20.37H43.7974L41.0934 24.179L38.3894 20.37H37.8174V27ZM46.793 27H47.404V21.475L50.043 25.141L52.708 21.475V27H53.345V20.37H52.773L50.069 24.179L47.365 20.37H46.793V27ZM58.5636 27.156C59.8376 27.156 60.6306 26.636 61.3066 25.908L60.8646 25.518C60.3186 26.103 59.6166 26.558 58.5896 26.558C57.2896 26.558 56.1066 25.596 55.9896 23.945H61.4886C61.5016 23.841 61.5016 23.802 61.5016 23.685C61.5016 21.722 60.3186 20.214 58.4596 20.214C56.6656 20.214 55.3136 21.748 55.3136 23.672C55.3136 25.765 56.8216 27.156 58.5636 27.156ZM55.9896 23.373C56.1066 21.904 57.1206 20.799 58.4336 20.799C59.9546 20.799 60.7216 22.034 60.8126 23.373H55.9896ZM63.3604 27H63.9974V23.893H68.4044V27H69.0414V20.37H68.4044V23.321H63.9974V20.37H63.3604V27ZM73.124 27H73.761V20.942H76.244V20.37H70.641V20.942H73.124V27ZM79.8607 27.156C81.1217 27.156 81.9407 26.532 82.3957 25.895V27H83.0197V22.866C83.0197 22.047 82.7857 21.436 82.3437 20.994C81.8627 20.513 81.1477 20.266 80.2507 20.266C79.3407 20.266 78.6257 20.5 77.8977 20.838L78.1317 21.397C78.7427 21.085 79.4057 20.864 80.2117 20.864C81.5767 20.864 82.3957 21.553 82.3957 22.892V23.178C81.7587 23.009 81.1217 22.892 80.1987 22.892C78.4827 22.892 77.2997 23.672 77.2997 25.05C77.2997 26.454 78.4957 27.156 79.8607 27.156ZM79.8997 26.558C78.7557 26.558 77.9887 25.999 77.9887 25.037C77.9887 24.088 78.7557 23.464 80.1597 23.464C81.1087 23.464 81.8497 23.62 82.4087 23.763V24.517C82.4087 25.726 81.2517 26.558 79.8997 26.558ZM85.3106 29.08H85.9476V25.57C86.4936 26.402 87.3516 27.156 88.6776 27.156C90.2766 27.156 91.9016 25.843 91.9016 23.685C91.9016 21.501 90.2766 20.214 88.6776 20.214C87.3646 20.214 86.5196 20.981 85.9476 21.852V20.37H85.3106V29.08ZM88.6126 26.545C87.2346 26.545 85.9086 25.401 85.9086 23.698C85.9086 21.982 87.2346 20.825 88.6126 20.825C90.0036 20.825 91.2126 21.943 91.2126 23.685C91.2126 25.492 90.0556 26.545 88.6126 26.545ZM93.8926 27H94.5296L99.0276 21.215V27H99.6646V20.37H99.0276L94.5296 26.155V20.37H93.8926V27ZM102.081 27H102.718L107.216 21.215V27H107.853V20.37H107.216L102.718 26.155V20.37H102.081V27ZM104.967 19.291C105.89 19.291 106.566 18.641 106.722 17.796L106.189 17.679C106.033 18.264 105.643 18.628 104.967 18.628C104.291 18.628 103.901 18.264 103.745 17.679L103.212 17.796C103.368 18.641 104.044 19.291 104.967 19.291Z" fill="#B8C1CA"/>
</svg>
