<svg width="288" height="57" viewBox="0 0 288 58" fill="none" xmlns="http://www.w3.org/2000/svg">
<rect width="288" height="44" fill="white"/>
<path d="M22.874 27H23.55V18.524H26.722V17.9H19.702V18.524H22.874V27ZM31.4337 27.156C32.7077 27.156 33.5007 26.636 34.1767 25.908L33.7347 25.518C33.1887 26.103 32.4867 26.558 31.4597 26.558C30.1597 26.558 28.9767 25.596 28.8597 23.945H34.3587C34.3717 23.841 34.3717 23.802 34.3717 23.685C34.3717 21.722 33.1887 20.214 31.3297 20.214C29.5357 20.214 28.1837 21.748 28.1837 23.672C28.1837 25.765 29.6917 27.156 31.4337 27.156ZM28.8597 23.373C28.9767 21.904 29.9907 20.799 31.3037 20.799C32.8247 20.799 33.5917 22.034 33.6827 23.373H28.8597ZM35.8015 27.104C37.0235 27.104 37.8295 26.61 37.8425 21.124V20.942H41.1055V27H41.7425V20.37H37.2315V20.721C37.2055 26.116 36.5815 26.506 35.6975 26.506C35.5675 26.506 35.2815 26.441 35.1905 26.415L35.0735 27C35.2555 27.052 35.5935 27.104 35.8015 27.104ZM46.9601 27.156C48.2341 27.156 49.0271 26.636 49.7031 25.908L49.2611 25.518C48.7151 26.103 48.0131 26.558 46.9861 26.558C45.6861 26.558 44.5031 25.596 44.3861 23.945H49.8851C49.8981 23.841 49.8981 23.802 49.8981 23.685C49.8981 21.722 48.7151 20.214 46.8561 20.214C45.0621 20.214 43.7101 21.748 43.7101 23.672C43.7101 25.765 45.2181 27.156 46.9601 27.156ZM44.3861 23.373C44.5031 21.904 45.5171 20.799 46.8301 20.799C48.3511 20.799 49.1181 22.034 49.2091 23.373H44.3861ZM55.7869 29.08H56.4239V26.402C56.8789 26.805 57.2949 27.156 58.1789 27.156C59.7779 27.156 60.8829 25.843 60.8829 23.685C60.8829 21.501 59.7779 20.214 58.1789 20.214C57.3599 20.214 56.8789 20.565 56.4239 20.994V17.9H55.7869V20.994C55.3189 20.565 54.8379 20.214 54.0319 20.214C52.4329 20.214 51.3279 21.501 51.3279 23.659C51.3279 25.843 52.4329 27.156 54.0319 27.156C54.8249 27.156 55.3189 26.805 55.7869 26.402V29.08ZM54.0969 26.545C52.6539 26.545 52.0169 25.492 52.0169 23.711C52.0169 21.943 52.7059 20.825 54.0969 20.825C54.7859 20.825 55.3189 21.111 55.7869 21.618V25.752C55.3189 26.259 54.7859 26.545 54.0969 26.545ZM58.1139 26.545C57.4249 26.545 56.8919 26.259 56.4239 25.752V21.618C56.8919 21.111 57.4249 20.825 58.1139 20.825C59.5049 20.825 60.1939 21.943 60.1939 23.685C60.1939 25.492 59.5569 26.545 58.1139 26.545ZM65.8159 27.156C67.7919 27.156 69.2349 25.544 69.2349 23.685C69.2349 21.8 67.8049 20.214 65.8419 20.214C63.8659 20.214 62.4229 21.826 62.4229 23.685C62.4229 25.57 63.8529 27.156 65.8159 27.156ZM65.8419 26.558C64.3079 26.558 63.1119 25.284 63.1119 23.685C63.1119 22.099 64.3209 20.812 65.8159 20.812C67.3109 20.812 68.5459 22.086 68.5459 23.685C68.5459 25.271 67.3109 26.558 65.8419 26.558ZM71.1934 27H71.8304V23.893H76.2374V27H76.8744V20.37H76.2374V23.321H71.8304V20.37H71.1934V27ZM77.85 28.664H78.487L84.623 16.626H83.986L77.85 28.664ZM85.936 27H92.475V26.376H86.612V22.723H91.825V22.099H86.612V18.524H92.41V17.9H85.936V27ZM94.203 23.503H97.687V22.775H94.203V23.503ZM99.8086 27H100.446V23.178C100.446 21.839 101.382 20.799 102.565 20.799C103.748 20.799 104.502 21.644 104.502 23.022V27H105.139V23.139C105.139 21.657 106.114 20.799 107.232 20.799C108.454 20.799 109.195 21.631 109.195 23.061V27H109.832V22.983C109.832 21.319 108.857 20.214 107.284 20.214C106.036 20.214 105.321 20.903 104.892 21.644C104.528 20.877 103.813 20.214 102.656 20.214C101.473 20.214 100.875 20.864 100.446 21.553V20.37H99.8086V27ZM114.189 27.156C115.45 27.156 116.269 26.532 116.724 25.895V27H117.348V22.866C117.348 22.047 117.114 21.436 116.672 20.994C116.191 20.513 115.476 20.266 114.579 20.266C113.669 20.266 112.954 20.5 112.226 20.838L112.46 21.397C113.071 21.085 113.734 20.864 114.54 20.864C115.905 20.864 116.724 21.553 116.724 22.892V23.178C116.087 23.009 115.45 22.892 114.527 22.892C112.811 22.892 111.628 23.672 111.628 25.05C111.628 26.454 112.954 27.156 114.189 27.156ZM114.228 26.558C113.214 26.558 112.304 25.999 112.304 25.037C112.304 24.088 113.084 23.464 114.488 23.464C115.437 23.464 116.178 23.62 116.737 23.763V24.517C116.737 25.726 115.58 26.558 114.228 26.558ZM119.73 27H120.367V20.37H119.73V27ZM119.652 18.641H120.445V17.77H119.652V18.641ZM122.967 27H123.604V17.51H122.967V27Z" fill="#B8C1CA"/>
</svg>
