<svg width="164" height="46" viewBox="0 0 164 46" fill="none" xmlns="http://www.w3.org/2000/svg">
<rect width="164" height="46" fill="#D79F43"/>
<path d="M41.632 29.216C45.502 29.216 48.238 26.246 48.238 22.7C48.238 19.118 45.538 16.184 41.668 16.184C37.798 16.184 35.062 19.154 35.062 22.7C35.062 26.282 37.762 29.216 41.632 29.216ZM41.668 27.182C39.166 27.182 37.384 25.148 37.384 22.7C37.384 20.216 39.13 18.218 41.632 18.218C44.134 18.218 45.916 20.252 45.916 22.7C45.916 25.184 44.17 27.182 41.668 27.182ZM52.695 29H54.891V21.368H57.951V19.496H49.635V21.368H52.695V29ZM59.6785 29H61.8565V21.368H65.9785V29H68.1565V19.496H59.6785V29ZM70.8934 31.88H73.0714V27.524C73.7374 28.406 74.7274 29.198 76.2934 29.198C78.5614 29.198 80.7214 27.416 80.7214 24.266C80.7214 21.08 78.5434 19.298 76.2934 19.298C74.7634 19.298 73.7734 20.09 73.0714 21.08V19.496H70.8934V31.88ZM75.7894 27.308C74.3134 27.308 73.0174 26.102 73.0174 24.266C73.0174 22.412 74.3134 21.188 75.7894 21.188C77.2654 21.188 78.5074 22.394 78.5074 24.23C78.5074 26.138 77.2834 27.308 75.7894 27.308ZM90.926 29V23.366C90.926 20.828 89.558 19.352 86.75 19.352C85.202 19.352 84.176 19.676 83.132 20.144L83.726 21.89C84.59 21.53 85.382 21.296 86.444 21.296C87.956 21.296 88.784 22.016 88.784 23.33V23.51C88.046 23.276 87.308 23.114 86.156 23.114C83.942 23.114 82.304 24.122 82.304 26.228C82.304 28.172 83.888 29.198 85.688 29.198C87.128 29.198 88.118 28.604 88.766 27.83V29H90.926ZM88.82 25.562C88.82 26.75 87.74 27.56 86.3 27.56C85.274 27.56 84.464 27.056 84.464 26.156C84.464 25.202 85.274 24.644 86.642 24.644C87.488 24.644 88.262 24.806 88.82 25.022V25.562ZM93.5164 29H98.4484C100.608 29 101.958 28.028 101.958 26.426C101.958 25.076 101.148 24.374 99.9964 24.05C100.806 23.69 101.526 23.078 101.526 21.872C101.526 20.414 100.284 19.496 98.3944 19.496H93.5164V29ZM95.6584 27.272V24.896H98.0164C99.1864 24.896 99.7444 25.364 99.7444 26.048C99.7444 26.786 99.1864 27.272 98.1244 27.272H95.6584ZM95.6584 23.42V21.17H97.9264C98.8984 21.17 99.3124 21.638 99.3124 22.25C99.3124 22.934 98.8084 23.42 97.8904 23.42H95.6584ZM104.134 29H106.186L110.704 22.664V29H112.81V19.496H110.758C109.246 21.62 107.752 23.744 106.258 25.868V19.496H104.134V29ZM117.576 29H119.772V21.368H122.832V19.496H114.516V21.368H117.576V29ZM124.559 29H129.077C131.309 29 132.695 27.794 132.695 25.832C132.695 23.762 131.057 22.826 128.915 22.826H126.737V19.496H124.559V29ZM126.737 27.236V24.518H128.753C129.869 24.518 130.517 24.986 130.517 25.832C130.517 26.75 129.887 27.236 128.789 27.236H126.737Z" fill="white"/>
</svg>
