<svg width="36" height="33" viewBox="0 0 36 33" fill="none" xmlns="http://www.w3.org/2000/svg">
<circle cx="26.5" cy="9.5" r="9.5" fill="#D79F43"/>
<path d="M26.354 15.168C28.048 15.168 29.546 14.02 29.546 12.312C29.546 10.366 27.712 9.624 26.074 9.512L29.392 5.718V5.2H23.26V5.886H28.398L25.024 9.778L25.206 10.184H25.738C27.502 10.184 28.79 10.94 28.79 12.312C28.79 13.614 27.712 14.51 26.368 14.51C25.08 14.51 24.1 13.936 23.316 12.942L22.756 13.404C23.554 14.44 24.758 15.168 26.354 15.168Z" fill="white"/>
<path d="M11.5 14.5514L13.6563 18.9357L14.0156 19.7214L14.7969 19.8393L19.6094 20.5386L16.1875 23.9171L15.6016 24.4907L15.7422 25.2764L16.5625 30.0929L12.2578 27.8221L11.5 27.5L10.7734 27.885L6.46875 30.1243L7.25 25.3079L7.39063 24.5221L6.8125 23.9171L3.35938 20.4993L8.17188 19.8L8.95313 19.6821L9.3125 18.8964L11.5 14.5514ZM11.5 11L7.94531 18.2443L0 19.3993L5.75 25.0407L4.39063 33L11.5 29.2443L18.6094 33L17.25 25.0407L23 19.4071L15.0547 18.2443L11.5 11Z" fill="#0E2149"/>
</svg>
