<svg width="190" height="46" viewBox="0 0 190 46" fill="none" xmlns="http://www.w3.org/2000/svg">
<path d="M63.47 18H64.25V8.22H67.91V7.5H59.81V8.22H63.47V18ZM73.5116 18.18C75.7916 18.18 77.4566 16.32 77.4566 14.175C77.4566 12 75.8066 10.17 73.5416 10.17C71.2616 10.17 69.5966 12.03 69.5966 14.175C69.5966 16.35 71.2466 18.18 73.5116 18.18ZM73.5416 17.49C71.7716 17.49 70.3916 16.02 70.3916 14.175C70.3916 12.345 71.7866 10.86 73.5116 10.86C75.2366 10.86 76.6616 12.33 76.6616 14.175C76.6616 16.005 75.2366 17.49 73.5416 17.49ZM79.7163 18H83.3763C85.0263 18 86.1213 17.19 86.1213 15.915C86.1213 14.835 85.3113 14.25 84.3963 14.01C85.0113 13.755 85.6863 13.29 85.6863 12.255C85.6863 11.085 84.6963 10.35 83.2113 10.35H79.7163V18ZM80.4513 17.34V14.385H83.1063C84.5763 14.385 85.3563 14.925 85.3563 15.81C85.3563 16.755 84.5613 17.34 83.2863 17.34H80.4513ZM80.4513 13.77V11.01H83.1513C84.3063 11.01 84.9363 11.535 84.9363 12.3C84.9363 13.26 84.1713 13.77 83.1063 13.77H80.4513ZM90.7425 18.18C92.1975 18.18 93.1425 17.46 93.6675 16.725V18H94.3875V13.23C94.3875 12.285 94.1175 11.58 93.6075 11.07C93.0525 10.515 92.2275 10.23 91.1925 10.23C90.1425 10.23 89.3175 10.5 88.4775 10.89L88.7475 11.535C89.4525 11.175 90.2175 10.92 91.1475 10.92C92.7225 10.92 93.6675 11.715 93.6675 13.26V13.59C92.9325 13.395 92.1975 13.26 91.1325 13.26C89.1525 13.26 87.7875 14.16 87.7875 15.75C87.7875 17.37 89.1675 18.18 90.7425 18.18ZM90.7875 17.49C89.4675 17.49 88.5825 16.845 88.5825 15.735C88.5825 14.64 89.4675 13.92 91.0875 13.92C92.1825 13.92 93.0375 14.1 93.6825 14.265V15.135C93.6825 16.53 92.3475 17.49 90.7875 17.49ZM97.0307 20.4H97.7657V16.35C98.3957 17.31 99.3857 18.18 100.916 18.18C102.761 18.18 104.636 16.665 104.636 14.175C104.636 11.655 102.761 10.17 100.916 10.17C99.4007 10.17 98.4257 11.055 97.7657 12.06V10.35H97.0307V20.4ZM100.841 17.475C99.2507 17.475 97.7207 16.155 97.7207 14.19C97.7207 12.21 99.2507 10.875 100.841 10.875C102.446 10.875 103.841 12.165 103.841 14.175C103.841 16.26 102.506 17.475 100.841 17.475ZM110.323 18.18C112.603 18.18 114.268 16.32 114.268 14.175C114.268 12 112.618 10.17 110.353 10.17C108.073 10.17 106.408 12.03 106.408 14.175C106.408 16.35 108.058 18.18 110.323 18.18ZM110.353 17.49C108.583 17.49 107.203 16.02 107.203 14.175C107.203 12.345 108.598 10.86 110.323 10.86C112.048 10.86 113.473 12.33 113.473 14.175C113.473 16.005 112.048 17.49 110.353 17.49ZM116.528 18H120.188C121.838 18 122.933 17.19 122.933 15.915C122.933 14.835 122.123 14.25 121.208 14.01C121.823 13.755 122.498 13.29 122.498 12.255C122.498 11.085 121.508 10.35 120.023 10.35H116.528V18ZM117.263 17.34V14.385H119.918C121.388 14.385 122.168 14.925 122.168 15.81C122.168 16.755 121.373 17.34 120.098 17.34H117.263ZM117.263 13.77V11.01H119.963C121.118 11.01 121.748 11.535 121.748 12.3C121.748 13.26 120.983 13.77 119.918 13.77H117.263ZM125.139 18H126.129V16.725H125.139V18ZM125.139 11.625H126.129V10.35H125.139V11.625Z" fill="#717171"/>
<path d="M136.6 18.18C138.415 18.18 140.02 16.95 140.02 15.12C140.02 13.035 138.055 12.24 136.3 12.12L139.855 8.055V7.5H133.285V8.235H138.79L135.175 12.405L135.37 12.84H135.94C137.83 12.84 139.21 13.65 139.21 15.12C139.21 16.515 138.055 17.475 136.615 17.475C135.235 17.475 134.185 16.86 133.345 15.795L132.745 16.29C133.6 17.4 134.89 18.18 136.6 18.18ZM64.085 37.18C66.365 37.18 68.09 35.695 68.09 33.55C68.09 31.33 66.485 30.175 64.4 30.175C63.365 30.175 62.75 30.505 62.225 30.85C62.375 29.47 63.035 28.42 64.34 28.42C65.24 28.42 65.795 28.735 66.485 29.26L67.7 27.475C66.77 26.74 65.84 26.32 64.415 26.32C61.28 26.32 59.81 28.81 59.81 32.05C59.81 34.165 60.29 35.29 61.055 36.055C61.79 36.79 62.72 37.18 64.085 37.18ZM63.995 35.2C62.855 35.2 62.165 34.525 62.165 33.64C62.165 32.725 62.825 32.095 63.965 32.095C65.105 32.095 65.795 32.74 65.795 33.625C65.795 34.555 65.135 35.2 63.995 35.2ZM78.0037 37.18C80.4187 37.18 81.9937 35.77 81.9937 33.55C81.9937 31.15 80.3587 30.16 78.3187 30.16C77.7337 30.16 77.3587 30.235 76.9387 30.34L77.0587 28.525H81.5287V26.5H75.0787L74.7787 31.675L76.1137 32.56C76.6087 32.35 77.2087 32.17 77.8687 32.17C78.9637 32.17 79.7287 32.695 79.7287 33.595C79.7287 34.555 79.0537 35.08 77.9737 35.08C77.0437 35.08 76.2637 34.66 75.4687 33.94L74.0737 35.605C75.0937 36.58 76.3237 37.18 78.0037 37.18ZM88.847 37H91.052V34.735H92.462V32.86H91.052V26.425H89.102L83.342 33.1L83.717 34.735H88.847V37ZM86.057 32.86L88.847 29.59V32.86H86.057ZM98.6788 37.18C101.484 37.18 103.359 34.795 103.359 31.75C103.359 28.675 101.484 26.32 98.7088 26.32C95.9188 26.32 94.0288 28.705 94.0288 31.75C94.0288 34.825 95.8738 37.18 98.6788 37.18ZM98.7088 35.095C97.3138 35.095 96.3988 33.67 96.3988 31.75C96.3988 29.8 97.2988 28.405 98.6788 28.405C100.059 28.405 100.989 29.845 100.989 31.75C100.989 33.685 100.104 35.095 98.7088 35.095ZM114.671 33.1987H109.061V31.4849H114.62C115.074 31.4849 115.436 31.4141 115.704 31.2725C115.978 31.1309 116.175 30.9355 116.297 30.6865C116.419 30.4326 116.48 30.1445 116.48 29.8223C116.48 29.5049 116.415 29.2144 116.283 28.9507C116.156 28.6821 115.958 28.4673 115.689 28.3062C115.426 28.1401 115.089 28.0571 114.679 28.0571H112.738V37H110.541V26.3359H114.671C115.511 26.3359 116.229 26.4849 116.825 26.7827C117.425 27.0806 117.887 27.4907 118.209 28.0132C118.531 28.5356 118.692 29.1338 118.692 29.8076C118.692 30.5156 118.526 31.1235 118.194 31.6313C117.867 32.1392 117.403 32.5273 116.803 32.7959C116.207 33.0645 115.497 33.1987 114.671 33.1987ZM115.074 33.7993V35.5132H109.061V33.7993H115.074Z" fill="#0E2149"/>
<circle cx="23" cy="23" r="23" fill="#EFF2F4"/>
<path d="M23.5 12L16.1844 19.5093H12V24.5683H13.0268L15.3112 32.3938L15.4911 33H31.5089L31.6888 32.3938L33.9732 24.5683H35V19.5093H30.8156L23.5 12ZM23.5 14.398L28.4803 19.5093H18.5205L23.5 14.398ZM13.6429 21.1956H33.3571V22.882H32.7411L32.5612 23.4882L30.2768 31.3137H16.7232L14.4388 23.4882L14.2589 22.882H13.6429V21.1956ZM19.3929 23.7251V29.6273H21.0357V23.7251H19.3929ZM22.6786 23.7251V29.6273H24.3214V23.7251H22.6786ZM25.9643 23.7251V29.6273H27.6071V23.7251H25.9643Z" fill="#0E2149"/>
</svg>
