<svg width="33" height="33" viewBox="0 0 33 33" fill="none" xmlns="http://www.w3.org/2000/svg">
<path d="M11.5 12L4.18436 19.5093H0V24.5683H1.02679L3.31118 32.3938L3.49107 33H19.5089L19.6888 32.3938L21.9732 24.5683H23V19.5093H18.8156L11.5 12ZM11.5 14.398L16.4803 19.5093H6.5205L11.5 14.398ZM1.64286 21.1956H21.3571V22.882H20.7411L20.5612 23.4882L18.2768 31.3137H4.72321L2.43882 23.4882L2.25893 22.882H1.64286V21.1956ZM7.39286 23.7251V29.6273H9.03571V23.7251H7.39286ZM10.6786 23.7251V29.6273H12.3214V23.7251H10.6786ZM13.9643 23.7251V29.6273H15.6071V23.7251H13.9643Z" fill="#0E2149"/>
<circle cx="23.5" cy="9.5" r="9.5" fill="#D79F43"/>
<path d="M23.354 15.168C25.048 15.168 26.546 14.02 26.546 12.312C26.546 10.366 24.712 9.624 23.074 9.512L26.392 5.718V5.2H20.26V5.886H25.398L22.024 9.778L22.206 10.184H22.738C24.502 10.184 25.79 10.94 25.79 12.312C25.79 13.614 24.712 14.51 23.368 14.51C22.08 14.51 21.1 13.936 20.316 12.942L19.756 13.404C20.554 14.44 21.758 15.168 23.354 15.168Z" fill="white"/>
</svg>
