<svg width="348" height="50" viewBox="0 0 348 50" fill="none" xmlns="http://www.w3.org/2000/svg">
<rect width="348" height="50" fill="#253B6A"/>
<path d="M324 33C325.775 32.9996 327.499 32.4054 328.897 31.312L333.293 35.708L334.707 34.294L330.311 29.898C331.405 28.4997 332 26.7754 332 25C332 20.589 328.411 17 324 17C319.589 17 316 20.589 316 25C316 29.411 319.589 33 324 33ZM324 19C327.309 19 330 21.691 330 25C330 28.309 327.309 31 324 31C320.691 31 318 28.309 318 25C318 21.691 320.691 19 324 19Z" fill="white"/>
<path d="M24.352 31H25.028V22.524H30.722V31H31.398V21.9H24.352V31ZM36.897 31.156C38.873 31.156 40.316 29.544 40.316 27.685C40.316 25.8 38.886 24.214 36.923 24.214C34.947 24.214 33.504 25.826 33.504 27.685C33.504 29.57 34.934 31.156 36.897 31.156ZM36.923 30.558C35.389 30.558 34.193 29.284 34.193 27.685C34.193 26.099 35.402 24.812 36.897 24.812C38.392 24.812 39.627 26.086 39.627 27.685C39.627 29.271 38.392 30.558 36.923 30.558ZM42.2744 31H42.9114L47.4094 25.215V31H48.0464V24.37H47.4094L42.9114 30.155V24.37H42.2744V31ZM53.3879 31.156C54.6099 31.156 55.4159 30.61 56.0919 29.843L55.6239 29.427C55.0649 30.051 54.3629 30.558 53.4269 30.558C51.9059 30.558 50.6969 29.284 50.6969 27.685C50.6969 26.099 51.9059 24.812 53.3749 24.812C54.3629 24.812 55.0129 25.319 55.5849 25.904L56.0269 25.449C55.4419 24.786 54.6359 24.214 53.3879 24.214C51.4899 24.214 50.0079 25.787 50.0079 27.685C50.0079 29.596 51.4769 31.156 53.3879 31.156ZM57.8897 31H58.5267V29.388L60.1387 27.763L62.7647 31H63.5707L60.5807 27.308L63.4797 24.37H62.6347L58.5267 28.621V24.37H57.8897V31ZM69.0108 31H69.6478V24.942H73.8858V31H74.5228V24.37H69.0108V31ZM79.8833 31.156C81.8593 31.156 83.3023 29.544 83.3023 27.685C83.3023 25.8 81.8723 24.214 79.9093 24.214C77.9333 24.214 76.4903 25.826 76.4903 27.685C76.4903 29.57 77.9203 31.156 79.8833 31.156ZM79.9093 30.558C78.3753 30.558 77.1793 29.284 77.1793 27.685C77.1793 26.099 78.3883 24.812 79.8833 24.812C81.3783 24.812 82.6133 26.086 82.6133 27.685C82.6133 29.271 81.3783 30.558 79.9093 30.558ZM92.0832 31.156C93.3052 31.156 94.1112 30.61 94.7872 29.843L94.3192 29.427C93.7602 30.051 93.0582 30.558 92.1222 30.558C90.6012 30.558 89.3922 29.284 89.3922 27.685C89.3922 26.099 90.6012 24.812 92.0702 24.812C93.0582 24.812 93.7082 25.319 94.2802 25.904L94.7222 25.449C94.1372 24.786 93.3312 24.214 92.0832 24.214C90.1852 24.214 88.7032 25.787 88.7032 27.685C88.7032 29.596 90.1722 31.156 92.0832 31.156ZM98.6 31.156C99.861 31.156 100.68 30.532 101.135 29.895V31H101.759V26.866C101.759 26.047 101.525 25.436 101.083 24.994C100.602 24.513 99.887 24.266 98.99 24.266C98.08 24.266 97.365 24.5 96.637 24.838L96.871 25.397C97.482 25.085 98.145 24.864 98.951 24.864C100.316 24.864 101.135 25.553 101.135 26.892V27.178C100.498 27.009 99.861 26.892 98.938 26.892C97.222 26.892 96.039 27.672 96.039 29.05C96.039 30.454 97.235 31.156 98.6 31.156ZM98.639 30.558C97.495 30.558 96.728 29.999 96.728 29.037C96.728 28.088 97.495 27.464 98.899 27.464C99.848 27.464 100.589 27.62 101.148 27.763V28.517C101.148 29.726 99.991 30.558 98.639 30.558ZM104.05 31H104.687L109.185 25.215V31H109.822V24.37H109.185L104.687 30.155V24.37H104.05V31ZM106.936 23.291C107.859 23.291 108.535 22.641 108.691 21.796L108.158 21.679C108.002 22.264 107.612 22.628 106.936 22.628C106.26 22.628 105.87 22.264 105.714 21.679L105.181 21.796C105.337 22.641 106.013 23.291 106.936 23.291ZM113.902 31H114.539V24.942H117.022V24.37H111.419V24.942H113.902V31ZM119.43 33.119C120.379 33.119 121.055 32.625 121.64 31.234L124.513 24.37H123.811L121.419 30.298L118.663 24.37H117.922L121.107 30.961C120.613 32.118 120.158 32.521 119.469 32.521C118.975 32.521 118.689 32.443 118.338 32.274L118.117 32.833C118.559 33.028 118.923 33.119 119.43 33.119Z" fill="white"/>
</svg>
