<svg width="1920" height="300" viewBox="0 0 1920 300" fill="none" xmlns="http://www.w3.org/2000/svg">
<rect width="1920" height="300" fill="url(#paint0_radial_1124_928)"/>
<g clip-path="url(#clip0_1124_928)">
<path fill-rule="evenodd" clip-rule="evenodd" d="M843.064 60.5865H814.157L804.522 51L795.529 60.5865H782.039V74.0076L761.483 93.8197H747.993V107.241L739 116.188L748.636 125.775V154.534L739 163.482L748.636 173.068V186.489H762.125L782.681 206.94V220.361H796.171L805.807 229.948L815.442 220.361H844.349L853.984 229.948L863.62 220.361H877.11V206.94L897.666 186.489H911.155V173.068L920.791 163.482L911.155 153.895V125.136L920.791 115.549L911.155 105.963V93.8197H897.666L877.11 73.3685V60.5865H863.62L852.057 51L843.064 60.5865ZM846.918 69.5339L852.057 63.782L857.839 69.5339H865.547V77.2031L891.242 102.767H899.593V110.436L905.374 116.188L899.593 121.94V158.369L905.374 164.121L899.593 169.233V176.903H891.884L866.189 202.467V210.136H858.481L852.7 215.888L846.918 210.775H810.303L804.522 216.527L799.383 210.775H791.032V203.106L765.337 177.542H757.629V169.873L751.847 163.482L757.629 157.73V121.301L751.847 116.188L757.629 110.436V102.767H765.337L791.032 77.2031V69.5339H798.74L804.522 63.782L810.303 69.5339H846.918ZM810.303 75.9249V80.3986C810.303 82.955 810.303 84.8723 809.661 87.4287C809.661 88.7069 809.018 90.6242 808.376 91.9024C807.734 95.0979 806.449 97.6543 805.164 100.211C804.522 101.489 803.237 102.767 802.595 104.045C800.025 107.88 796.171 111.075 792.317 114.271C793.602 116.827 794.886 120.023 796.171 122.579C801.952 118.745 807.091 113.632 810.946 107.88C811.588 106.602 812.873 105.323 813.515 104.045C814.8 101.489 816.084 98.2934 816.727 95.737C817.369 94.4588 817.369 92.5415 818.012 91.2633C818.654 89.346 818.654 87.4287 818.654 84.8723H837.925C837.925 86.7896 838.567 88.7069 838.567 91.2633C841.779 90.6242 844.349 89.346 846.918 87.4287C846.276 84.8723 846.276 82.955 846.276 80.3986V75.9249H810.303ZM857.839 84.8723C856.554 86.7896 854.627 88.0678 852.7 89.346C851.415 89.9851 850.13 91.2633 848.845 91.9024C846.276 93.1806 843.706 94.4588 840.495 95.0979C839.21 95.737 837.283 95.737 835.998 96.3761C833.428 97.0152 831.501 97.0152 828.932 97.0152C826.362 97.0152 823.793 97.0152 821.866 96.3761C821.223 99.5716 819.939 102.128 818.654 104.684C821.866 105.323 825.72 105.963 828.932 105.963C832.786 105.963 835.998 105.323 839.21 104.684C840.495 104.045 842.422 104.045 843.706 103.406C846.276 102.767 849.488 101.489 852.057 100.211C853.342 99.5716 854.627 98.9325 855.911 97.6543C857.839 97.0152 859.766 95.737 861.05 94.4588L874.54 107.88C873.255 109.797 871.971 111.075 870.686 112.993C873.255 114.271 876.467 115.549 879.037 116.188C880.322 114.271 881.606 112.354 883.533 111.075L886.745 107.88L861.05 82.3159L857.839 84.8723ZM769.834 107.88L773.046 111.075C774.973 112.354 776.257 114.271 777.542 116.188C778.185 117.466 779.469 118.745 780.112 120.023C781.396 122.579 782.681 125.136 783.324 128.331C783.966 129.609 783.966 131.527 784.608 132.805C785.251 135.361 785.251 137.278 785.251 139.835C785.251 142.391 785.251 144.948 784.608 146.865C787.82 147.504 790.39 148.782 792.959 150.06C793.601 146.865 794.244 143.03 794.244 139.835C794.244 136 793.601 132.805 792.959 129.609C792.317 128.331 792.317 126.414 791.674 125.136C791.032 122.579 789.747 119.384 788.463 116.827C787.82 115.549 787.178 114.271 785.893 112.993C785.251 111.075 783.966 109.158 782.681 107.88L796.171 94.4588C797.456 95.737 799.383 97.0152 801.31 98.2934C802.595 95.737 803.879 92.5415 804.522 89.9851C802.595 88.0678 800.668 86.7896 799.383 84.8723L796.171 81.6768L769.834 107.88ZM846.276 107.88C850.13 113.632 855.269 118.745 861.05 122.579C862.335 123.218 863.62 124.496 864.905 125.136C867.474 126.414 870.044 127.692 873.255 128.331C874.54 128.97 876.467 128.97 877.752 129.609C879.679 130.248 881.606 130.248 884.176 130.248V149.421C882.249 149.421 880.322 150.06 877.752 150.06C878.394 153.256 879.679 155.812 881.606 158.369C884.176 157.73 886.103 157.73 888.672 157.73H893.169V121.301H888.672C886.103 121.301 884.176 121.301 881.606 120.662C880.322 120.662 878.394 120.023 877.11 119.384C873.898 118.745 871.328 117.466 868.759 116.188C867.474 115.549 866.189 114.91 864.905 113.632C861.05 111.075 857.839 107.241 854.627 103.406C852.057 105.963 848.845 106.602 846.276 107.88ZM814.8 117.466V163.482H823.793V149.421H830.859C839.852 149.421 846.918 142.391 846.918 133.444C846.918 124.496 839.852 117.466 830.859 117.466H814.8ZM823.793 126.414H830.859C834.713 126.414 837.925 129.609 837.925 133.444C837.925 137.278 834.713 140.474 830.859 140.474H823.793V126.414ZM768.549 121.94H764.052V158.369H768.549C771.119 158.369 773.046 158.369 775.615 159.008C776.9 159.008 778.827 159.647 780.112 160.286C783.324 160.925 785.893 162.203 788.463 163.482C789.747 164.121 791.032 164.76 792.317 166.038C796.171 168.594 799.383 172.429 802.595 176.264C805.164 174.985 808.376 173.707 810.946 172.429C807.091 166.677 801.952 161.564 796.171 157.73C794.886 157.091 793.602 155.812 792.317 155.173C789.747 153.895 787.178 152.617 783.966 151.978C782.681 151.339 780.754 151.339 779.469 150.7C777.542 150.06 775.615 150.06 773.046 150.06V130.887C774.973 130.887 776.9 130.248 779.469 130.248C778.827 127.053 777.542 124.496 775.615 121.94C773.046 121.94 771.119 121.94 768.549 121.94ZM863.62 150.7C864.262 151.978 864.262 153.895 864.905 155.173C865.547 157.73 866.832 160.925 868.117 163.482C868.759 164.76 869.401 166.038 870.686 167.316C871.971 169.233 873.255 170.512 874.54 172.429L861.05 185.85C859.123 184.572 857.839 183.294 855.911 182.015C854.627 184.572 853.342 187.767 852.7 190.324C854.627 191.602 856.554 192.88 857.839 194.797L861.05 197.993L886.745 172.429L883.533 169.233C881.606 167.316 880.322 166.038 879.037 164.121C878.394 162.842 877.11 161.564 876.467 160.286C875.183 157.73 873.898 154.534 873.255 151.978C872.613 150.7 872.613 148.782 871.971 147.504C871.328 143.03 871.328 137.918 871.971 133.444C868.759 132.805 866.189 131.527 863.62 130.248C862.335 136.639 862.335 143.669 863.62 150.7ZM846.276 172.429C845.634 173.707 844.349 174.985 843.706 176.264C842.422 178.82 841.137 181.376 840.495 184.572C839.852 185.85 839.852 187.767 839.21 189.046C838.567 190.963 838.567 192.88 838.567 195.437H819.296C819.296 193.519 818.654 191.602 818.654 189.046C815.442 189.685 812.873 190.963 810.303 192.88C810.946 195.437 810.946 197.354 810.946 199.91V204.384H847.561V199.91C847.561 197.354 847.561 195.437 848.203 192.88C848.203 191.602 848.845 189.685 849.488 188.406C850.13 185.211 851.415 182.655 852.7 180.098C853.342 178.82 853.984 177.542 855.269 176.264C857.839 172.429 861.693 169.233 865.547 166.038C864.262 163.482 862.978 160.286 861.693 157.73C855.269 161.564 850.13 166.677 846.276 172.429ZM773.046 169.233L769.834 172.429L795.529 197.993L798.74 194.797C800.668 192.88 801.952 191.602 803.879 190.324C805.164 189.685 806.449 188.406 807.734 187.767C810.303 186.489 812.873 185.211 816.084 184.572C817.369 183.933 819.296 183.933 820.581 183.294C823.151 182.655 825.078 182.655 827.647 182.655C830.217 182.655 832.786 182.655 834.713 183.294C835.356 180.098 836.64 177.542 837.925 174.985C834.713 174.346 830.859 173.707 827.647 173.707C823.793 173.707 820.581 174.346 817.369 174.985C816.084 174.985 814.157 175.624 812.873 176.264C810.303 176.903 807.091 178.181 804.522 179.459C803.237 180.098 801.952 180.737 800.668 182.015C798.74 183.294 797.456 184.572 795.529 185.85L782.681 172.429C783.966 171.151 785.251 169.233 786.535 167.316C783.324 166.038 780.754 164.76 777.542 164.121C776.257 166.038 774.973 167.955 773.046 169.233Z" fill="url(#paint1_linear_1124_928)"/>
</g>
<rect x="973" y="222" width="164" height="46" fill="#D79F43"/>
<path d="M1014.63 251.216C1018.5 251.216 1021.24 248.246 1021.24 244.7C1021.24 241.118 1018.54 238.184 1014.67 238.184C1010.8 238.184 1008.06 241.154 1008.06 244.7C1008.06 248.282 1010.76 251.216 1014.63 251.216ZM1014.67 249.182C1012.17 249.182 1010.38 247.148 1010.38 244.7C1010.38 242.216 1012.13 240.218 1014.63 240.218C1017.13 240.218 1018.92 242.252 1018.92 244.7C1018.92 247.184 1017.17 249.182 1014.67 249.182ZM1025.69 251H1027.89V243.368H1030.95V241.496H1022.63V243.368H1025.69V251ZM1032.68 251H1034.86V243.368H1038.98V251H1041.16V241.496H1032.68V251ZM1043.89 253.88H1046.07V249.524C1046.74 250.406 1047.73 251.198 1049.29 251.198C1051.56 251.198 1053.72 249.416 1053.72 246.266C1053.72 243.08 1051.54 241.298 1049.29 241.298C1047.76 241.298 1046.77 242.09 1046.07 243.08V241.496H1043.89V253.88ZM1048.79 249.308C1047.31 249.308 1046.02 248.102 1046.02 246.266C1046.02 244.412 1047.31 243.188 1048.79 243.188C1050.27 243.188 1051.51 244.394 1051.51 246.23C1051.51 248.138 1050.28 249.308 1048.79 249.308ZM1063.93 251V245.366C1063.93 242.828 1062.56 241.352 1059.75 241.352C1058.2 241.352 1057.18 241.676 1056.13 242.144L1056.73 243.89C1057.59 243.53 1058.38 243.296 1059.44 243.296C1060.96 243.296 1061.78 244.016 1061.78 245.33V245.51C1061.05 245.276 1060.31 245.114 1059.16 245.114C1056.94 245.114 1055.3 246.122 1055.3 248.228C1055.3 250.172 1056.89 251.198 1058.69 251.198C1060.13 251.198 1061.12 250.604 1061.77 249.83V251H1063.93ZM1061.82 247.562C1061.82 248.75 1060.74 249.56 1059.3 249.56C1058.27 249.56 1057.46 249.056 1057.46 248.156C1057.46 247.202 1058.27 246.644 1059.64 246.644C1060.49 246.644 1061.26 246.806 1061.82 247.022V247.562ZM1066.52 251H1071.45C1073.61 251 1074.96 250.028 1074.96 248.426C1074.96 247.076 1074.15 246.374 1073 246.05C1073.81 245.69 1074.53 245.078 1074.53 243.872C1074.53 242.414 1073.28 241.496 1071.39 241.496H1066.52V251ZM1068.66 249.272V246.896H1071.02C1072.19 246.896 1072.74 247.364 1072.74 248.048C1072.74 248.786 1072.19 249.272 1071.12 249.272H1068.66ZM1068.66 245.42V243.17H1070.93C1071.9 243.17 1072.31 243.638 1072.31 244.25C1072.31 244.934 1071.81 245.42 1070.89 245.42H1068.66ZM1077.13 251H1079.19L1083.7 244.664V251H1085.81V241.496H1083.76C1082.25 243.62 1080.75 245.744 1079.26 247.868V241.496H1077.13V251ZM1090.58 251H1092.77V243.368H1095.83V241.496H1087.52V243.368H1090.58V251ZM1097.56 251H1102.08C1104.31 251 1105.7 249.794 1105.7 247.832C1105.7 245.762 1104.06 244.826 1101.92 244.826H1099.74V241.496H1097.56V251ZM1099.74 249.236V246.518H1101.75C1102.87 246.518 1103.52 246.986 1103.52 247.832C1103.52 248.75 1102.89 249.236 1101.79 249.236H1099.74Z" fill="white"/>
<path d="M381.042 99.0003H363.78V69.0123H381.042V74.2203H370.122V80.8143H380.286V86.0223H370.122V93.7503H381.042V99.0003ZM396.102 99.4203C393.834 99.4203 391.902 99.0143 390.306 98.2023C388.71 97.3623 387.492 96.0743 386.652 94.3383C385.812 92.6023 385.392 90.3763 385.392 87.6603C385.392 84.8603 385.868 82.5783 386.82 80.8143C387.772 79.0503 389.088 77.7483 390.768 76.9083C392.476 76.0683 394.436 75.6483 396.648 75.6483C398.216 75.6483 399.574 75.8023 400.722 76.1103C401.898 76.4183 402.92 76.7823 403.788 77.2023L401.94 82.0323C400.96 81.6403 400.036 81.3183 399.168 81.0663C398.328 80.8143 397.488 80.6883 396.648 80.6883C395.556 80.6883 394.646 80.9543 393.918 81.4863C393.19 81.9903 392.644 82.7603 392.28 83.7963C391.944 84.8043 391.776 86.0783 391.776 87.6183C391.776 89.1303 391.958 90.3903 392.322 91.3983C392.714 92.3783 393.274 93.1203 394.002 93.6243C394.73 94.1003 395.612 94.3383 396.648 94.3383C397.964 94.3383 399.126 94.1703 400.134 93.8343C401.142 93.4703 402.122 92.9803 403.074 92.3643V97.6983C402.122 98.3143 401.114 98.7483 400.05 99.0003C399.014 99.2803 397.698 99.4203 396.102 99.4203ZM427.336 80.7723H419.818V99.0003H413.56V80.7723H406.042V76.0683H427.336V80.7723ZM442.235 84.9303C444.587 84.9303 446.533 85.1823 448.073 85.6863C449.613 86.1623 450.747 86.9043 451.475 87.9123C452.231 88.9203 452.609 90.1803 452.609 91.6923C452.609 93.1763 452.259 94.4643 451.559 95.5563C450.887 96.6483 449.809 97.5023 448.325 98.1183C446.841 98.7063 444.895 99.0003 442.487 99.0003H431.567V76.0683H437.825V84.9303H442.235ZM446.351 91.7763C446.351 90.8803 445.987 90.2363 445.259 89.8443C444.559 89.4523 443.509 89.2563 442.109 89.2563H437.825V94.6743H442.193C443.425 94.6743 444.419 94.4503 445.175 94.0023C445.959 93.5543 446.351 92.8123 446.351 91.7763ZM485.692 82.0743C485.692 83.3063 485.3 84.3563 484.516 85.2243C483.76 86.0923 482.626 86.6523 481.114 86.9043V87.0723C482.71 87.2683 483.984 87.8143 484.936 88.7103C485.916 89.6063 486.406 90.7543 486.406 92.1543C486.406 93.1343 486.21 94.0443 485.818 94.8843C485.454 95.7243 484.866 96.4523 484.054 97.0683C483.242 97.6843 482.192 98.1603 480.904 98.4963C479.644 98.8323 478.104 99.0003 476.284 99.0003H465.364V76.0683H476.284C478.076 76.0683 479.672 76.2643 481.072 76.6563C482.5 77.0203 483.62 77.6363 484.432 78.5043C485.272 79.3723 485.692 80.5623 485.692 82.0743ZM479.938 91.8183C479.938 90.9223 479.588 90.2783 478.888 89.8863C478.188 89.4663 477.138 89.2563 475.738 89.2563H471.622V94.6743H475.864C477.04 94.6743 478.006 94.4643 478.762 94.0443C479.546 93.5963 479.938 92.8543 479.938 91.8183ZM479.35 82.5783C479.35 81.8503 479.07 81.3183 478.51 80.9823C477.95 80.6463 477.124 80.4783 476.032 80.4783H471.622V85.0143H475.318C476.634 85.0143 477.628 84.8323 478.3 84.4683C479 84.0763 479.35 83.4463 479.35 82.5783ZM512.61 87.4923C512.61 89.3963 512.344 91.0903 511.812 92.5743C511.308 94.0583 510.566 95.3183 509.586 96.3543C508.634 97.3623 507.472 98.1323 506.1 98.6643C504.728 99.1683 503.174 99.4203 501.438 99.4203C499.842 99.4203 498.358 99.1683 496.986 98.6643C495.642 98.1323 494.48 97.3623 493.5 96.3543C492.52 95.3183 491.75 94.0583 491.19 92.5743C490.658 91.0903 490.392 89.3963 490.392 87.4923C490.392 84.9443 490.84 82.8023 491.736 81.0663C492.632 79.3023 493.92 77.9583 495.6 77.0343C497.28 76.1103 499.268 75.6483 501.564 75.6483C503.72 75.6483 505.624 76.1103 507.276 77.0343C508.928 77.9583 510.23 79.3023 511.182 81.0663C512.134 82.8023 512.61 84.9443 512.61 87.4923ZM496.776 87.4923C496.776 89.0043 496.93 90.2783 497.238 91.3143C497.574 92.3223 498.092 93.0923 498.792 93.6243C499.492 94.1283 500.402 94.3803 501.522 94.3803C502.642 94.3803 503.538 94.1283 504.21 93.6243C504.91 93.0923 505.414 92.3223 505.722 91.3143C506.058 90.2783 506.226 89.0043 506.226 87.4923C506.226 85.9803 506.058 84.7203 505.722 83.7123C505.414 82.7043 504.91 81.9483 504.21 81.4443C503.51 80.9403 502.6 80.6883 501.48 80.6883C499.828 80.6883 498.624 81.2623 497.868 82.4103C497.14 83.5303 496.776 85.2243 496.776 87.4923ZM538.614 76.0683V99.0003H532.356V80.7723H524.04V99.0003H517.782V76.0683H538.614ZM557.948 75.6483C560.524 75.6483 562.61 76.6563 564.206 78.6723C565.802 80.6603 566.6 83.6003 566.6 87.4923C566.6 90.0963 566.222 92.2943 565.466 94.0863C564.71 95.8503 563.674 97.1803 562.358 98.0763C561.042 98.9723 559.516 99.4203 557.78 99.4203C556.688 99.4203 555.736 99.2803 554.924 99.0003C554.14 98.7203 553.468 98.3563 552.908 97.9083C552.348 97.4603 551.858 96.9843 551.438 96.4803H551.102C551.214 97.0123 551.298 97.5723 551.354 98.1603C551.41 98.7203 551.438 99.2803 551.438 99.8403V109.08H545.18V76.0683H550.262L551.144 79.0503H551.438C551.858 78.4343 552.362 77.8743 552.95 77.3703C553.538 76.8383 554.238 76.4183 555.05 76.1103C555.89 75.8023 556.856 75.6483 557.948 75.6483ZM555.932 80.6463C554.84 80.6463 553.972 80.8703 553.328 81.3183C552.684 81.7663 552.208 82.4523 551.9 83.3763C551.62 84.2723 551.466 85.4063 551.438 86.7783V87.4503C551.438 88.9343 551.578 90.1943 551.858 91.2303C552.138 92.2383 552.614 93.0083 553.286 93.5403C553.958 94.0723 554.868 94.3383 556.016 94.3383C556.968 94.3383 557.752 94.0723 558.368 93.5403C558.984 93.0083 559.446 92.2243 559.754 91.1883C560.062 90.1523 560.216 88.8923 560.216 87.4083C560.216 85.1683 559.866 83.4883 559.166 82.3683C558.494 81.2203 557.416 80.6463 555.932 80.6463ZM592.59 87.4923C592.59 89.3963 592.324 91.0903 591.792 92.5743C591.288 94.0583 590.546 95.3183 589.566 96.3543C588.614 97.3623 587.452 98.1323 586.08 98.6643C584.708 99.1683 583.154 99.4203 581.418 99.4203C579.822 99.4203 578.338 99.1683 576.966 98.6643C575.622 98.1323 574.46 97.3623 573.48 96.3543C572.5 95.3183 571.73 94.0583 571.17 92.5743C570.638 91.0903 570.372 89.3963 570.372 87.4923C570.372 84.9443 570.82 82.8023 571.716 81.0663C572.612 79.3023 573.9 77.9583 575.58 77.0343C577.26 76.1103 579.248 75.6483 581.544 75.6483C583.7 75.6483 585.604 76.1103 587.256 77.0343C588.908 77.9583 590.21 79.3023 591.162 81.0663C592.114 82.8023 592.59 84.9443 592.59 87.4923ZM576.756 87.4923C576.756 89.0043 576.91 90.2783 577.218 91.3143C577.554 92.3223 578.072 93.0923 578.772 93.6243C579.472 94.1283 580.382 94.3803 581.502 94.3803C582.622 94.3803 583.518 94.1283 584.19 93.6243C584.89 93.0923 585.394 92.3223 585.702 91.3143C586.038 90.2783 586.206 89.0043 586.206 87.4923C586.206 85.9803 586.038 84.7203 585.702 83.7123C585.394 82.7043 584.89 81.9483 584.19 81.4443C583.49 80.9403 582.58 80.6883 581.46 80.6883C579.808 80.6883 578.604 81.2623 577.848 82.4103C577.12 83.5303 576.756 85.2243 576.756 87.4923ZM607.086 99.4203C604.818 99.4203 602.886 99.0143 601.29 98.2023C599.694 97.3623 598.476 96.0743 597.636 94.3383C596.796 92.6023 596.376 90.3763 596.376 87.6603C596.376 84.8603 596.852 82.5783 597.804 80.8143C598.756 79.0503 600.072 77.7483 601.752 76.9083C603.46 76.0683 605.42 75.6483 607.632 75.6483C609.2 75.6483 610.558 75.8023 611.706 76.1103C612.882 76.4183 613.904 76.7823 614.772 77.2023L612.924 82.0323C611.944 81.6403 611.02 81.3183 610.152 81.0663C609.312 80.8143 608.472 80.6883 607.632 80.6883C606.54 80.6883 605.63 80.9543 604.902 81.4863C604.174 81.9903 603.628 82.7603 603.264 83.7963C602.928 84.8043 602.76 86.0783 602.76 87.6183C602.76 89.1303 602.942 90.3903 603.306 91.3983C603.698 92.3783 604.258 93.1203 604.986 93.6243C605.714 94.1003 606.596 94.3383 607.632 94.3383C608.948 94.3383 610.11 94.1703 611.118 93.8343C612.126 93.4703 613.106 92.9803 614.058 92.3643V97.6983C613.106 98.3143 612.098 98.7483 611.034 99.0003C609.998 99.2803 608.682 99.4203 607.086 99.4203ZM619.337 99.0003V76.0683H625.595V84.9303H628.619C630.971 84.9303 632.903 85.1823 634.415 85.6863C635.927 86.1623 637.047 86.9043 637.775 87.9123C638.531 88.9203 638.909 90.1803 638.909 91.6923C638.909 93.1763 638.559 94.4643 637.859 95.5563C637.187 96.6483 636.109 97.5023 634.625 98.1183C633.169 98.7063 631.237 99.0003 628.829 99.0003H619.337ZM628.493 94.6743C629.725 94.6743 630.719 94.4503 631.475 94.0023C632.259 93.5543 632.651 92.8123 632.651 91.7763C632.651 90.8803 632.287 90.2363 631.559 89.8443C630.859 89.4523 629.809 89.2563 628.409 89.2563H625.595V94.6743H628.493ZM642.227 99.0003V76.0683H648.485V99.0003H642.227ZM660.932 91.4534C660.932 89.4026 661.807 87.6116 663.557 86.0804C663.857 85.8069 664.336 85.4241 664.992 84.9319C666.523 83.7561 667.521 82.7581 667.986 81.9378C668.451 81.1175 668.684 80.2151 668.684 79.2307C668.684 76.8792 667.33 75.2932 664.623 74.4729C663.557 74.1448 662.367 73.9807 661.055 73.9807C658.457 73.9807 656.475 74.5823 655.107 75.7854C654.342 76.4964 653.945 77.303 653.918 78.2054C653.918 79.4358 654.492 80.1604 655.641 80.3792C655.859 80.4065 656.064 80.4202 656.256 80.4202C657.404 80.4202 658.102 79.887 658.348 78.8206C658.402 78.6018 658.457 78.26 658.512 77.7952C658.621 76.5647 658.922 75.7854 659.414 75.4573C659.797 75.1839 660.303 75.0471 660.932 75.0471C662.818 75.2112 663.803 76.3596 663.885 78.4925C663.885 80.6253 663.338 82.5257 662.244 84.1936C661.26 85.6975 660.686 86.5999 660.521 86.9007C659.92 88.1858 659.619 89.7034 659.619 91.4534H660.932ZM663.064 96.5804C663.064 95.5139 662.586 94.7346 661.629 94.2425C661.219 94.0237 660.809 93.9143 660.398 93.9143C659.305 93.9143 658.525 94.4065 658.061 95.3909C657.869 95.7737 657.773 96.1702 657.773 96.5804C657.773 97.7014 658.266 98.4944 659.25 98.9593C659.633 99.1233 660.016 99.2054 660.398 99.2054C661.465 99.2054 662.244 98.7405 662.736 97.8108C662.955 97.428 663.064 97.0179 663.064 96.5804Z" fill="white"/>
<path d="M369.632 158.216C373.448 158.216 375.986 155.138 375.986 151.7C375.986 148.226 373.484 145.184 369.668 145.184C365.852 145.184 363.314 148.262 363.314 151.7C363.314 155.174 365.816 158.216 369.632 158.216ZM369.668 157.37C366.554 157.37 364.286 154.814 364.286 151.7C364.286 148.55 366.518 146.03 369.632 146.03C372.746 146.03 375.014 148.586 375.014 151.7C375.014 154.85 372.782 157.37 369.668 157.37ZM383.017 158.216C384.709 158.216 385.825 157.46 386.761 156.398L386.113 155.822C385.339 156.686 384.367 157.388 383.071 157.388C380.965 157.388 379.291 155.624 379.291 153.41C379.291 151.214 380.965 149.432 382.999 149.432C384.367 149.432 385.267 150.134 386.059 150.944L386.671 150.314C385.861 149.396 384.745 148.604 383.017 148.604C380.389 148.604 378.337 150.782 378.337 153.41C378.337 156.056 380.371 158.216 383.017 158.216ZM391.554 158H392.436V149.612H395.874V148.82H388.116V149.612H391.554V158ZM400.882 158.216C402.628 158.216 403.762 157.352 404.392 156.47V158H405.256V152.276C405.256 151.142 404.932 150.296 404.32 149.684C403.654 149.018 402.664 148.676 401.422 148.676C400.162 148.676 399.172 149 398.164 149.468L398.488 150.242C399.334 149.81 400.252 149.504 401.368 149.504C403.258 149.504 404.392 150.458 404.392 152.312V152.708C403.51 152.474 402.628 152.312 401.35 152.312C398.974 152.312 397.336 153.392 397.336 155.3C397.336 157.244 398.992 158.216 400.882 158.216ZM400.936 157.388C399.352 157.388 398.29 156.614 398.29 155.282C398.29 153.968 399.352 153.104 401.296 153.104C402.61 153.104 403.636 153.32 404.41 153.518V154.562C404.41 156.236 402.808 157.388 400.936 157.388ZM408.428 158H412.82C414.8 158 416.114 157.028 416.114 155.498C416.114 154.202 415.142 153.5 414.044 153.212C414.782 152.906 415.592 152.348 415.592 151.106C415.592 149.702 414.404 148.82 412.622 148.82H408.428V158ZM409.31 157.208V153.662H412.496C414.26 153.662 415.196 154.31 415.196 155.372C415.196 156.506 414.242 157.208 412.712 157.208H409.31ZM409.31 152.924V149.612H412.55C413.936 149.612 414.692 150.242 414.692 151.16C414.692 152.312 413.774 152.924 412.496 152.924H409.31ZM418.869 158H422.649C424.665 158 425.997 156.83 425.997 155.048C425.997 153.158 424.395 152.348 422.487 152.348H419.751V148.82H418.869V158ZM419.751 157.208V153.14H422.433C424.035 153.14 425.043 153.842 425.043 155.084C425.043 156.434 424.053 157.208 422.505 157.208H419.751ZM430.701 158H431.583V149.612H435.021V148.82H427.263V149.612H430.701V158ZM441.108 158.216C442.872 158.216 443.97 157.496 444.906 156.488L444.294 155.948C443.538 156.758 442.566 157.388 441.144 157.388C439.344 157.388 437.706 156.056 437.544 153.77H445.158C445.176 153.626 445.176 153.572 445.176 153.41C445.176 150.692 443.538 148.604 440.964 148.604C438.48 148.604 436.608 150.728 436.608 153.392C436.608 156.29 438.696 158.216 441.108 158.216ZM437.544 152.978C437.706 150.944 439.11 149.414 440.928 149.414C443.034 149.414 444.096 151.124 444.222 152.978H437.544ZM457.197 158.216C458.889 158.216 460.005 157.46 460.941 156.398L460.293 155.822C459.519 156.686 458.547 157.388 457.251 157.388C455.145 157.388 453.471 155.624 453.471 153.41C453.471 151.214 455.145 149.432 457.179 149.432C458.547 149.432 459.447 150.134 460.239 150.944L460.851 150.314C460.041 149.396 458.925 148.604 457.197 148.604C454.569 148.604 452.517 150.782 452.517 153.41C452.517 156.056 454.551 158.216 457.197 158.216ZM463.43 158H467.822C469.802 158 471.116 157.028 471.116 155.498C471.116 154.202 470.144 153.5 469.046 153.212C469.784 152.906 470.594 152.348 470.594 151.106C470.594 149.702 469.406 148.82 467.624 148.82H463.43V158ZM464.312 157.208V153.662H467.498C469.262 153.662 470.198 154.31 470.198 155.372C470.198 156.506 469.244 157.208 467.714 157.208H464.312ZM464.312 152.924V149.612H467.552C468.938 149.612 469.694 150.242 469.694 151.16C469.694 152.312 468.776 152.924 467.498 152.924H464.312ZM477.939 158.216C480.675 158.216 482.673 155.984 482.673 153.41C482.673 150.8 480.693 148.604 477.975 148.604C475.239 148.604 473.241 150.836 473.241 153.41C473.241 156.02 475.221 158.216 477.939 158.216ZM477.975 157.388C475.851 157.388 474.195 155.624 474.195 153.41C474.195 151.214 475.869 149.432 477.939 149.432C480.009 149.432 481.719 151.196 481.719 153.41C481.719 155.606 480.009 157.388 477.975 157.388ZM485.385 158H486.267L492.495 149.99V158H493.377V148.82H492.495L486.267 156.83V148.82H485.385V158ZM500.697 160.592H501.435L501.615 158H509.985V160.592H510.705L510.885 157.208H509.409V148.82H503.253V150.764C503.253 153.824 502.713 155.876 501.903 157.208H500.697V160.592ZM502.875 157.208C503.595 155.984 504.099 153.716 504.099 151.268V149.612H508.527V157.208H502.875ZM515.896 158.216C517.642 158.216 518.776 157.352 519.406 156.47V158H520.27V152.276C520.27 151.142 519.946 150.296 519.334 149.684C518.668 149.018 517.678 148.676 516.436 148.676C515.176 148.676 514.186 149 513.178 149.468L513.502 150.242C514.348 149.81 515.266 149.504 516.382 149.504C518.272 149.504 519.406 150.458 519.406 152.312V152.708C518.524 152.474 517.642 152.312 516.364 152.312C513.988 152.312 512.35 153.392 512.35 155.3C512.35 157.244 514.006 158.216 515.896 158.216ZM515.95 157.388C514.366 157.388 513.304 156.614 513.304 155.282C513.304 153.968 514.366 153.104 516.31 153.104C517.624 153.104 518.65 153.32 519.424 153.518V154.562C519.424 156.236 517.822 157.388 515.95 157.388ZM523.442 158H524.324V153.698H530.426V158H531.308V148.82H530.426V152.906H524.324V148.82H523.442V158ZM534.656 158H535.538V153.698H541.64V158H542.522V148.82H541.64V152.906H535.538V148.82H534.656V158ZM545.871 158H549.651C551.667 158 552.999 156.83 552.999 155.048C552.999 153.158 551.397 152.348 549.489 152.348H546.753V148.82H545.871V158ZM546.753 157.208V153.14H549.435C551.037 153.14 552.045 153.842 552.045 155.084C552.045 156.434 551.055 157.208 549.507 157.208H546.753ZM554.835 158H555.717V148.82H554.835V158ZM562.942 158.216C564.706 158.216 565.804 157.496 566.74 156.488L566.128 155.948C565.372 156.758 564.4 157.388 562.978 157.388C561.178 157.388 559.54 156.056 559.378 153.77H566.992C567.01 153.626 567.01 153.572 567.01 153.41C567.01 150.692 565.372 148.604 562.798 148.604C560.314 148.604 558.442 150.728 558.442 153.392C558.442 156.29 560.53 158.216 562.942 158.216ZM559.378 152.978C559.54 150.944 560.944 149.414 562.762 149.414C564.868 149.414 565.93 151.124 566.056 152.978H559.378ZM574.981 158H575.863L582.091 149.99V158H582.973V148.82H582.091L575.863 156.83V148.82H574.981V158ZM591.715 158H592.597V153.698H598.699V158H599.581V148.82H598.699V152.906H592.597V148.82H591.715V158ZM605.72 158.216C607.466 158.216 608.6 157.352 609.23 156.47V158H610.094V152.276C610.094 151.142 609.77 150.296 609.158 149.684C608.492 149.018 607.502 148.676 606.26 148.676C605 148.676 604.01 149 603.002 149.468L603.326 150.242C604.172 149.81 605.09 149.504 606.206 149.504C608.096 149.504 609.23 150.458 609.23 152.312V152.708C608.348 152.474 607.466 152.312 606.188 152.312C603.812 152.312 602.174 153.392 602.174 155.3C602.174 157.244 603.83 158.216 605.72 158.216ZM605.774 157.388C604.19 157.388 603.128 156.614 603.128 155.282C603.128 153.968 604.19 153.104 606.134 153.104C607.448 153.104 608.474 153.32 609.248 153.518V154.562C609.248 156.236 607.646 157.388 605.774 157.388ZM613.266 158H626.064V148.82H625.182V157.208H620.106V148.82H619.224V157.208H614.148V148.82H613.266V158ZM363.674 181H364.52V173.35L368.174 178.426L371.864 173.35V181H372.746V171.82H371.954L368.21 177.094L364.466 171.82H363.674V181ZM379.972 181.216C381.736 181.216 382.834 180.496 383.77 179.488L383.158 178.948C382.402 179.758 381.43 180.388 380.008 180.388C378.208 180.388 376.57 179.056 376.408 176.77H384.022C384.04 176.626 384.04 176.572 384.04 176.41C384.04 173.692 382.402 171.604 379.828 171.604C377.344 171.604 375.472 173.728 375.472 176.392C375.472 179.29 377.56 181.216 379.972 181.216ZM376.408 175.978C376.57 173.944 377.974 172.414 379.792 172.414C381.898 172.414 382.96 174.124 383.086 175.978H376.408ZM386.613 181H387.495V176.698H393.597V181H394.479V171.82H393.597V175.906H387.495V171.82H386.613V181ZM401.698 181.216C403.462 181.216 404.56 180.496 405.496 179.488L404.884 178.948C404.128 179.758 403.156 180.388 401.734 180.388C399.934 180.388 398.296 179.056 398.134 176.77H405.748C405.766 176.626 405.766 176.572 405.766 176.41C405.766 173.692 404.128 171.604 401.554 171.604C399.07 171.604 397.198 173.728 397.198 176.392C397.198 179.29 399.286 181.216 401.698 181.216ZM398.134 175.978C398.296 173.944 399.7 172.414 401.518 172.414C403.624 172.414 404.686 174.124 404.812 175.978H398.134ZM406.918 183.592H407.656L407.836 181H416.206V183.592H416.926L417.106 180.208H415.63V171.82H409.474V173.764C409.474 176.824 408.934 178.876 408.124 180.208H406.918V183.592ZM409.096 180.208C409.816 178.984 410.32 176.716 410.32 174.268V172.612H414.748V180.208H409.096ZM418.12 181H419.2L422.584 176.41L424.726 178.75V181H425.608V178.75L427.75 176.428L431.134 181H432.214L428.308 175.798L431.98 171.82H430.864L425.608 177.67V171.82H424.726V177.67L419.47 171.82H418.354L422.008 175.798L418.12 181ZM438.226 181.216C439.99 181.216 441.088 180.496 442.024 179.488L441.412 178.948C440.656 179.758 439.684 180.388 438.262 180.388C436.462 180.388 434.824 179.056 434.662 176.77H442.276C442.294 176.626 442.294 176.572 442.294 176.41C442.294 173.692 440.656 171.604 438.082 171.604C435.598 171.604 433.726 173.728 433.726 176.392C433.726 179.29 435.814 181.216 438.226 181.216ZM434.662 175.978C434.824 173.944 436.228 172.414 438.046 172.414C440.152 172.414 441.214 174.124 441.34 175.978H434.662ZM444.867 183.88H445.749V179.02C446.505 180.172 447.693 181.216 449.529 181.216C451.743 181.216 453.993 179.398 453.993 176.41C453.993 173.386 451.743 171.604 449.529 171.604C447.711 171.604 446.541 172.666 445.749 173.872V171.82H444.867V183.88ZM449.439 180.37C447.531 180.37 445.695 178.786 445.695 176.428C445.695 174.052 447.531 172.45 449.439 172.45C451.365 172.45 453.039 173.998 453.039 176.41C453.039 178.912 451.437 180.37 449.439 180.37ZM466.197 181.216C467.889 181.216 469.005 180.46 469.941 179.398L469.293 178.822C468.519 179.686 467.547 180.388 466.251 180.388C464.145 180.388 462.471 178.624 462.471 176.41C462.471 174.214 464.145 172.432 466.179 172.432C467.547 172.432 468.447 173.134 469.239 173.944L469.851 173.314C469.041 172.396 467.925 171.604 466.197 171.604C463.569 171.604 461.517 173.782 461.517 176.41C461.517 179.056 463.551 181.216 466.197 181.216ZM472.43 181H476.822C478.802 181 480.116 180.028 480.116 178.498C480.116 177.202 479.144 176.5 478.046 176.212C478.784 175.906 479.594 175.348 479.594 174.106C479.594 172.702 478.406 171.82 476.624 171.82H472.43V181ZM473.312 180.208V176.662H476.498C478.262 176.662 479.198 177.31 479.198 178.372C479.198 179.506 478.244 180.208 476.714 180.208H473.312ZM473.312 175.924V172.612H476.552C477.938 172.612 478.694 173.242 478.694 174.16C478.694 175.312 477.776 175.924 476.498 175.924H473.312ZM482.133 181H483.213L485.949 177.472H488.973V181H489.855V171.82H485.751C483.645 171.82 482.385 172.936 482.385 174.556C482.385 176.086 483.573 177.076 485.031 177.346L482.133 181ZM485.913 176.68C484.437 176.68 483.339 175.888 483.339 174.61C483.339 173.404 484.275 172.612 485.877 172.612H488.973V176.68H485.913ZM492.001 181H493.081L496.465 176.41L498.607 178.75V181H499.489V178.75L501.631 176.428L505.015 181H506.095L502.189 175.798L505.861 171.82H504.745L499.489 177.67V171.82H498.607V177.67L493.351 171.82H492.235L495.889 175.798L492.001 181ZM512.107 181.216C513.871 181.216 514.969 180.496 515.905 179.488L515.293 178.948C514.537 179.758 513.565 180.388 512.143 180.388C510.343 180.388 508.705 179.056 508.543 176.77H516.157C516.175 176.626 516.175 176.572 516.175 176.41C516.175 173.692 514.537 171.604 511.963 171.604C509.479 171.604 507.607 173.728 507.607 176.392C507.607 179.29 509.695 181.216 512.107 181.216ZM508.543 175.978C508.705 173.944 510.109 172.414 511.927 172.414C514.033 172.414 515.095 174.124 515.221 175.978H508.543ZM521.052 181H521.934V172.612H525.372V171.82H517.614V172.612H521.052V181ZM531.64 181.216C533.332 181.216 534.448 180.46 535.384 179.398L534.736 178.822C533.962 179.686 532.99 180.388 531.694 180.388C529.588 180.388 527.914 178.624 527.914 176.41C527.914 174.214 529.588 172.432 531.622 172.432C532.99 172.432 533.89 173.134 534.682 173.944L535.294 173.314C534.484 172.396 533.368 171.604 531.64 171.604C529.012 171.604 526.96 173.782 526.96 176.41C526.96 179.056 528.994 181.216 531.64 181.216ZM537.135 181H538.215L540.951 177.472H543.975V181H544.857V171.82H540.753C538.647 171.82 537.387 172.936 537.387 174.556C537.387 176.086 538.575 177.076 540.033 177.346L537.135 181ZM540.915 176.68C539.439 176.68 538.341 175.888 538.341 174.61C538.341 173.404 539.277 172.612 540.879 172.612H543.975V176.68H540.915ZM557.656 181.216C559.348 181.216 560.464 180.46 561.4 179.398L560.752 178.822C559.978 179.686 559.006 180.388 557.71 180.388C555.604 180.388 553.93 178.624 553.93 176.41C553.93 174.214 555.604 172.432 557.638 172.432C559.006 172.432 559.906 173.134 560.698 173.944L561.31 173.314C560.5 172.396 559.384 171.604 557.656 171.604C555.028 171.604 552.976 173.782 552.976 176.41C552.976 179.056 555.01 181.216 557.656 181.216ZM569.285 181H573.677C575.657 181 576.971 180.028 576.971 178.498C576.971 177.202 575.999 176.5 574.901 176.212C575.639 175.906 576.449 175.348 576.449 174.106C576.449 172.702 575.261 171.82 573.479 171.82H569.285V181ZM570.167 180.208V176.662H573.353C575.117 176.662 576.053 177.31 576.053 178.372C576.053 179.506 575.099 180.208 573.569 180.208H570.167ZM570.167 175.924V172.612H573.407C574.793 172.612 575.549 173.242 575.549 174.16C575.549 175.312 574.631 175.924 573.353 175.924H570.167ZM582.517 181.216C584.263 181.216 585.397 180.352 586.027 179.47V181H586.891V175.276C586.891 174.142 586.567 173.296 585.955 172.684C585.289 172.018 584.299 171.676 583.057 171.676C581.797 171.676 580.807 172 579.799 172.468L580.123 173.242C580.969 172.81 581.887 172.504 583.003 172.504C584.893 172.504 586.027 173.458 586.027 175.312V175.708C585.145 175.474 584.263 175.312 582.985 175.312C580.609 175.312 578.971 176.392 578.971 178.3C578.971 180.244 580.627 181.216 582.517 181.216ZM582.571 180.388C580.987 180.388 579.925 179.614 579.925 178.282C579.925 176.968 580.987 176.104 582.931 176.104C584.245 176.104 585.271 176.32 586.045 176.518V177.562C586.045 179.236 584.443 180.388 582.571 180.388ZM590.063 181H590.909V173.35L594.563 178.426L598.253 173.35V181H599.135V171.82H598.343L594.599 177.094L590.855 171.82H590.063V181ZM602.49 181H603.372L609.6 172.99V181H610.482V171.82H609.6L603.372 179.83V171.82H602.49V181ZM619.225 181H623.617C625.597 181 626.911 180.028 626.911 178.498C626.911 177.202 625.939 176.5 624.841 176.212C625.579 175.906 626.389 175.348 626.389 174.106C626.389 172.702 625.201 171.82 623.419 171.82H619.225V181ZM620.107 180.208V176.662H623.293C625.057 176.662 625.993 177.31 625.993 178.372C625.993 179.506 625.039 180.208 623.509 180.208H620.107ZM620.107 175.924V172.612H623.347C624.733 172.612 625.489 173.242 625.489 174.16C625.489 175.312 624.571 175.924 623.293 175.924H620.107ZM367.868 204.216C370.55 204.216 372.512 202.02 372.512 199.464C372.512 196.944 370.532 194.784 368.102 194.784C366.122 194.784 364.88 195.684 364.124 196.944C364.304 194.82 365.006 193.83 366.968 193.308L372.008 191.976L371.756 191.184L366.536 192.498C363.422 193.29 363.26 196.116 363.26 199.176C363.26 202.236 365.204 204.216 367.868 204.216ZM367.904 203.388C365.834 203.388 364.214 201.66 364.214 199.5C364.214 197.358 365.744 195.612 367.868 195.612C369.938 195.612 371.558 197.34 371.558 199.5C371.558 201.642 370.028 203.388 367.904 203.388ZM374.629 204.144C376.321 204.144 377.437 203.46 377.455 195.864V195.612H381.973V204H382.855V194.82H376.609V195.306C376.573 202.776 375.709 203.316 374.485 203.316C374.305 203.316 373.909 203.226 373.783 203.19L373.621 204C373.873 204.072 374.341 204.144 374.629 204.144ZM386.209 204H387.091L393.319 195.99V204H394.201V194.82H393.319L387.091 202.83V194.82H386.209V204ZM396.341 204H397.421L400.805 199.41L402.947 201.75V204H403.829V201.75L405.971 199.428L409.355 204H410.435L406.529 198.798L410.201 194.82H409.085L403.829 200.67V194.82H402.947V200.67L397.691 194.82H396.575L400.229 198.798L396.341 204ZM415.366 204.216C417.112 204.216 418.246 203.352 418.876 202.47V204H419.74V198.276C419.74 197.142 419.416 196.296 418.804 195.684C418.138 195.018 417.148 194.676 415.906 194.676C414.646 194.676 413.656 195 412.648 195.468L412.972 196.242C413.818 195.81 414.736 195.504 415.852 195.504C417.742 195.504 418.876 196.458 418.876 198.312V198.708C417.994 198.474 417.112 198.312 415.834 198.312C413.458 198.312 411.82 199.392 411.82 201.3C411.82 203.244 413.476 204.216 415.366 204.216ZM415.42 203.388C413.836 203.388 412.774 202.614 412.774 201.282C412.774 199.968 413.836 199.104 415.78 199.104C417.094 199.104 418.12 199.32 418.894 199.518V200.562C418.894 202.236 417.292 203.388 415.42 203.388ZM422.912 204H423.794L430.022 195.99V204H430.904V194.82H430.022L423.794 202.83V194.82H422.912V204ZM426.908 193.326C428.186 193.326 429.122 192.426 429.338 191.256L428.6 191.094C428.384 191.904 427.844 192.408 426.908 192.408C425.972 192.408 425.432 191.904 425.216 191.094L424.478 191.256C424.694 192.426 425.63 193.326 426.908 193.326ZM434.25 204H447.048V194.82H446.166V203.208H441.09V194.82H440.208V203.208H435.132V194.82H434.25V204ZM454.274 204.216C456.038 204.216 457.136 203.496 458.072 202.488L457.46 201.948C456.704 202.758 455.732 203.388 454.31 203.388C452.51 203.388 450.872 202.056 450.71 199.77H458.324C458.342 199.626 458.342 199.572 458.342 199.41C458.342 196.692 456.704 194.604 454.13 194.604C451.646 194.604 449.774 196.728 449.774 199.392C449.774 202.29 451.862 204.216 454.274 204.216ZM450.71 198.978C450.872 196.944 452.276 195.414 454.094 195.414C456.2 195.414 457.262 197.124 457.388 198.978H450.71ZM464.786 204.216C466.55 204.216 467.648 203.496 468.584 202.488L467.972 201.948C467.216 202.758 466.244 203.388 464.822 203.388C463.022 203.388 461.384 202.056 461.222 199.77H468.836C468.854 199.626 468.854 199.572 468.854 199.41C468.854 196.692 467.216 194.604 464.642 194.604C462.158 194.604 460.286 196.728 460.286 199.392C460.286 202.29 462.374 204.216 464.786 204.216ZM461.222 198.978C461.384 196.944 462.788 195.414 464.606 195.414C466.712 195.414 467.774 197.124 467.9 198.978H461.222ZM476.824 204H481.216C483.196 204 484.51 203.028 484.51 201.498C484.51 200.202 483.538 199.5 482.44 199.212C483.178 198.906 483.988 198.348 483.988 197.106C483.988 195.702 482.8 194.82 481.018 194.82H476.824V204ZM477.706 203.208V199.662H480.892C482.656 199.662 483.592 200.31 483.592 201.372C483.592 202.506 482.638 203.208 481.108 203.208H477.706ZM477.706 198.924V195.612H480.946C482.332 195.612 483.088 196.242 483.088 197.16C483.088 198.312 482.17 198.924 480.892 198.924H477.706ZM487.266 206.88H488.148V202.02C488.904 203.172 490.092 204.216 491.928 204.216C494.142 204.216 496.392 202.398 496.392 199.41C496.392 196.386 494.142 194.604 491.928 194.604C490.11 194.604 488.94 195.666 488.148 196.872V194.82H487.266V206.88ZM491.838 203.37C489.93 203.37 488.094 201.786 488.094 199.428C488.094 197.052 489.93 195.45 491.838 195.45C493.764 195.45 495.438 196.998 495.438 199.41C495.438 201.912 493.836 203.37 491.838 203.37ZM503.019 204.216C504.783 204.216 505.881 203.496 506.817 202.488L506.205 201.948C505.449 202.758 504.477 203.388 503.055 203.388C501.255 203.388 499.617 202.056 499.455 199.77H507.069C507.087 199.626 507.087 199.572 507.087 199.41C507.087 196.692 505.449 194.604 502.875 194.604C500.391 194.604 498.519 196.728 498.519 199.392C498.519 202.29 500.607 204.216 503.019 204.216ZM499.455 198.978C499.617 196.944 501.021 195.414 502.839 195.414C504.945 195.414 506.007 197.124 506.133 198.978H499.455ZM509.66 204H510.506V196.35L514.16 201.426L517.85 196.35V204H518.732V194.82H517.94L514.196 200.094L510.452 194.82H509.66V204ZM521.35 204H522.43L525.166 200.472H528.19V204H529.072V194.82H524.968C522.862 194.82 521.602 195.936 521.602 197.556C521.602 199.086 522.79 200.076 524.248 200.346L521.35 204ZM525.13 199.68C523.654 199.68 522.556 198.888 522.556 197.61C522.556 196.404 523.492 195.612 525.094 195.612H528.19V199.68H525.13ZM532.226 204H533.414V202.47H532.226V204Z" fill="white"/>
<rect x="973" y="42" width="288" height="44" fill="white"/>
<path d="M993.352 69H997.304C999.267 69 1000.57 68.038 1000.57 66.517C1000.57 65.23 999.605 64.606 998.513 64.32C999.254 64.021 1000.06 63.397 1000.06 62.162C1000.06 60.784 998.89 59.9 997.109 59.9H993.352V69ZM994.028 68.376V64.723H997.109C998.903 64.723 999.878 65.373 999.878 66.491C999.878 67.661 998.89 68.376 997.33 68.376H994.028ZM994.028 64.099V60.524H997.096C998.552 60.524 999.371 61.2 999.371 62.201C999.371 63.436 998.396 64.099 997.031 64.099H994.028ZM1004.61 69.156C1005.87 69.156 1006.69 68.532 1007.14 67.895V69H1007.76V64.866C1007.76 64.047 1007.53 63.436 1007.09 62.994C1006.61 62.513 1005.89 62.266 1005 62.266C1004.09 62.266 1003.37 62.5 1002.64 62.838L1002.88 63.397C1003.49 63.085 1004.15 62.864 1004.96 62.864C1006.32 62.864 1007.14 63.553 1007.14 64.892V65.178C1006.5 65.009 1005.87 64.892 1004.94 64.892C1003.23 64.892 1002.04 65.672 1002.04 67.05C1002.04 68.454 1003.24 69.156 1004.61 69.156ZM1004.64 68.558C1003.5 68.558 1002.73 67.999 1002.73 67.037C1002.73 66.088 1003.5 65.464 1004.9 65.464C1005.85 65.464 1006.59 65.62 1007.15 65.763V66.517C1007.15 67.726 1006 68.558 1004.64 68.558ZM1010.06 69H1019.3V62.37H1018.66V68.428H1015V62.37H1014.36V68.428H1010.69V62.37H1010.06V69ZM1024.52 69.156C1025.79 69.156 1026.58 68.636 1027.26 67.908L1026.82 67.518C1026.27 68.103 1025.57 68.558 1024.54 68.558C1023.24 68.558 1022.06 67.596 1021.94 65.945H1027.44C1027.46 65.841 1027.46 65.802 1027.46 65.685C1027.46 63.722 1026.27 62.214 1024.41 62.214C1022.62 62.214 1021.27 63.748 1021.27 65.672C1021.27 67.765 1022.78 69.156 1024.52 69.156ZM1021.94 65.373C1022.06 63.904 1023.07 62.799 1024.39 62.799C1025.91 62.799 1026.68 64.034 1026.77 65.373H1021.94ZM1033.21 69H1033.85L1038.35 63.215V69H1038.98V62.37H1038.35L1033.85 68.155V62.37H1033.21V69ZM1041.4 69H1042.01V63.475L1044.65 67.141L1047.32 63.475V69H1047.95V62.37H1047.38L1044.68 66.179L1041.97 62.37H1041.4V69ZM1049.84 69H1050.62L1052.6 66.452H1054.78V69H1055.42V62.37H1052.46C1050.93 62.37 1050.02 63.176 1050.02 64.346C1050.02 65.451 1050.88 66.166 1051.94 66.361L1049.84 69ZM1052.57 65.88C1051.51 65.88 1050.71 65.308 1050.71 64.385C1050.71 63.514 1051.39 62.942 1052.55 62.942H1054.78V65.88H1052.57Z" fill="#B8C1CA"/>
<rect x="1272" y="42" width="288" height="99" fill="white"/>
<path d="M1292.35 69H1293.03V66.686L1295.29 64.398L1299.03 69H1299.92L1295.77 63.917L1299.75 59.9H1298.83L1293.03 65.88V59.9H1292.35V69ZM1304.44 69.156C1306.42 69.156 1307.86 67.544 1307.86 65.685C1307.86 63.8 1306.43 62.214 1304.47 62.214C1302.49 62.214 1301.05 63.826 1301.05 65.685C1301.05 67.57 1302.48 69.156 1304.44 69.156ZM1304.47 68.558C1302.93 68.558 1301.74 67.284 1301.74 65.685C1301.74 64.099 1302.94 62.812 1304.44 62.812C1305.93 62.812 1307.17 64.086 1307.17 65.685C1307.17 67.271 1305.93 68.558 1304.47 68.558ZM1309.82 69H1310.43V63.475L1313.07 67.141L1315.73 63.475V69H1316.37V62.37H1315.8L1313.09 66.179L1310.39 62.37H1309.82V69ZM1318.79 69H1319.4V63.475L1322.04 67.141L1324.71 63.475V69H1325.34V62.37H1324.77L1322.07 66.179L1319.36 62.37H1318.79V69ZM1330.56 69.156C1331.84 69.156 1332.63 68.636 1333.31 67.908L1332.86 67.518C1332.32 68.103 1331.62 68.558 1330.59 68.558C1329.29 68.558 1328.11 67.596 1327.99 65.945H1333.49C1333.5 65.841 1333.5 65.802 1333.5 65.685C1333.5 63.722 1332.32 62.214 1330.46 62.214C1328.67 62.214 1327.31 63.748 1327.31 65.672C1327.31 67.765 1328.82 69.156 1330.56 69.156ZM1327.99 65.373C1328.11 63.904 1329.12 62.799 1330.43 62.799C1331.95 62.799 1332.72 64.034 1332.81 65.373H1327.99ZM1335.36 69H1336V65.893H1340.4V69H1341.04V62.37H1340.4V65.321H1336V62.37H1335.36V69ZM1345.12 69H1345.76V62.942H1348.24V62.37H1342.64V62.942H1345.12V69ZM1351.86 69.156C1353.12 69.156 1353.94 68.532 1354.4 67.895V69H1355.02V64.866C1355.02 64.047 1354.79 63.436 1354.34 62.994C1353.86 62.513 1353.15 62.266 1352.25 62.266C1351.34 62.266 1350.63 62.5 1349.9 62.838L1350.13 63.397C1350.74 63.085 1351.41 62.864 1352.21 62.864C1353.58 62.864 1354.4 63.553 1354.4 64.892V65.178C1353.76 65.009 1353.12 64.892 1352.2 64.892C1350.48 64.892 1349.3 65.672 1349.3 67.05C1349.3 68.454 1350.5 69.156 1351.86 69.156ZM1351.9 68.558C1350.76 68.558 1349.99 67.999 1349.99 67.037C1349.99 66.088 1350.76 65.464 1352.16 65.464C1353.11 65.464 1353.85 65.62 1354.41 65.763V66.517C1354.41 67.726 1353.25 68.558 1351.9 68.558ZM1357.31 71.08H1357.95V67.57C1358.49 68.402 1359.35 69.156 1360.68 69.156C1362.28 69.156 1363.9 67.843 1363.9 65.685C1363.9 63.501 1362.28 62.214 1360.68 62.214C1359.36 62.214 1358.52 62.981 1357.95 63.852V62.37H1357.31V71.08ZM1360.61 68.545C1359.23 68.545 1357.91 67.401 1357.91 65.698C1357.91 63.982 1359.23 62.825 1360.61 62.825C1362 62.825 1363.21 63.943 1363.21 65.685C1363.21 67.492 1362.06 68.545 1360.61 68.545ZM1365.89 69H1366.53L1371.03 63.215V69H1371.66V62.37H1371.03L1366.53 68.155V62.37H1365.89V69ZM1374.08 69H1374.72L1379.22 63.215V69H1379.85V62.37H1379.22L1374.72 68.155V62.37H1374.08V69ZM1376.97 61.291C1377.89 61.291 1378.57 60.641 1378.72 59.796L1378.19 59.679C1378.03 60.264 1377.64 60.628 1376.97 60.628C1376.29 60.628 1375.9 60.264 1375.75 59.679L1375.21 59.796C1375.37 60.641 1376.04 61.291 1376.97 61.291Z" fill="#B8C1CA"/>
<rect x="973" y="96" width="288" height="44" fill="white"/>
<path d="M995.874 123H996.55V114.524H999.722V113.9H992.702V114.524H995.874V123ZM1004.43 123.156C1005.71 123.156 1006.5 122.636 1007.18 121.908L1006.73 121.518C1006.19 122.103 1005.49 122.558 1004.46 122.558C1003.16 122.558 1001.98 121.596 1001.86 119.945H1007.36C1007.37 119.841 1007.37 119.802 1007.37 119.685C1007.37 117.722 1006.19 116.214 1004.33 116.214C1002.54 116.214 1001.18 117.748 1001.18 119.672C1001.18 121.765 1002.69 123.156 1004.43 123.156ZM1001.86 119.373C1001.98 117.904 1002.99 116.799 1004.3 116.799C1005.82 116.799 1006.59 118.034 1006.68 119.373H1001.86ZM1008.8 123.104C1010.02 123.104 1010.83 122.61 1010.84 117.124V116.942H1014.11V123H1014.74V116.37H1010.23V116.721C1010.21 122.116 1009.58 122.506 1008.7 122.506C1008.57 122.506 1008.28 122.441 1008.19 122.415L1008.07 123C1008.26 123.052 1008.59 123.104 1008.8 123.104ZM1019.96 123.156C1021.23 123.156 1022.03 122.636 1022.7 121.908L1022.26 121.518C1021.72 122.103 1021.01 122.558 1019.99 122.558C1018.69 122.558 1017.5 121.596 1017.39 119.945H1022.89C1022.9 119.841 1022.9 119.802 1022.9 119.685C1022.9 117.722 1021.72 116.214 1019.86 116.214C1018.06 116.214 1016.71 117.748 1016.71 119.672C1016.71 121.765 1018.22 123.156 1019.96 123.156ZM1017.39 119.373C1017.5 117.904 1018.52 116.799 1019.83 116.799C1021.35 116.799 1022.12 118.034 1022.21 119.373H1017.39ZM1028.79 125.08H1029.42V122.402C1029.88 122.805 1030.29 123.156 1031.18 123.156C1032.78 123.156 1033.88 121.843 1033.88 119.685C1033.88 117.501 1032.78 116.214 1031.18 116.214C1030.36 116.214 1029.88 116.565 1029.42 116.994V113.9H1028.79V116.994C1028.32 116.565 1027.84 116.214 1027.03 116.214C1025.43 116.214 1024.33 117.501 1024.33 119.659C1024.33 121.843 1025.43 123.156 1027.03 123.156C1027.82 123.156 1028.32 122.805 1028.79 122.402V125.08ZM1027.1 122.545C1025.65 122.545 1025.02 121.492 1025.02 119.711C1025.02 117.943 1025.71 116.825 1027.1 116.825C1027.79 116.825 1028.32 117.111 1028.79 117.618V121.752C1028.32 122.259 1027.79 122.545 1027.1 122.545ZM1031.11 122.545C1030.42 122.545 1029.89 122.259 1029.42 121.752V117.618C1029.89 117.111 1030.42 116.825 1031.11 116.825C1032.5 116.825 1033.19 117.943 1033.19 119.685C1033.19 121.492 1032.56 122.545 1031.11 122.545ZM1038.82 123.156C1040.79 123.156 1042.23 121.544 1042.23 119.685C1042.23 117.8 1040.8 116.214 1038.84 116.214C1036.87 116.214 1035.42 117.826 1035.42 119.685C1035.42 121.57 1036.85 123.156 1038.82 123.156ZM1038.84 122.558C1037.31 122.558 1036.11 121.284 1036.11 119.685C1036.11 118.099 1037.32 116.812 1038.82 116.812C1040.31 116.812 1041.55 118.086 1041.55 119.685C1041.55 121.271 1040.31 122.558 1038.84 122.558ZM1044.19 123H1044.83V119.893H1049.24V123H1049.87V116.37H1049.24V119.321H1044.83V116.37H1044.19V123ZM1050.85 124.664H1051.49L1057.62 112.626H1056.99L1050.85 124.664ZM1058.94 123H1065.47V122.376H1059.61V118.723H1064.82V118.099H1059.61V114.524H1065.41V113.9H1058.94V123ZM1067.2 119.503H1070.69V118.775H1067.2V119.503ZM1072.81 123H1073.45V119.178C1073.45 117.839 1074.38 116.799 1075.56 116.799C1076.75 116.799 1077.5 117.644 1077.5 119.022V123H1078.14V119.139C1078.14 117.657 1079.11 116.799 1080.23 116.799C1081.45 116.799 1082.19 117.631 1082.19 119.061V123H1082.83V118.983C1082.83 117.319 1081.86 116.214 1080.28 116.214C1079.04 116.214 1078.32 116.903 1077.89 117.644C1077.53 116.877 1076.81 116.214 1075.66 116.214C1074.47 116.214 1073.87 116.864 1073.45 117.553V116.37H1072.81V123ZM1087.19 123.156C1088.45 123.156 1089.27 122.532 1089.72 121.895V123H1090.35V118.866C1090.35 118.047 1090.11 117.436 1089.67 116.994C1089.19 116.513 1088.48 116.266 1087.58 116.266C1086.67 116.266 1085.95 116.5 1085.23 116.838L1085.46 117.397C1086.07 117.085 1086.73 116.864 1087.54 116.864C1088.9 116.864 1089.72 117.553 1089.72 118.892V119.178C1089.09 119.009 1088.45 118.892 1087.53 118.892C1085.81 118.892 1084.63 119.672 1084.63 121.05C1084.63 122.454 1085.95 123.156 1087.19 123.156ZM1087.23 122.558C1086.21 122.558 1085.3 121.999 1085.3 121.037C1085.3 120.088 1086.08 119.464 1087.49 119.464C1088.44 119.464 1089.18 119.62 1089.74 119.763V120.517C1089.74 121.726 1088.58 122.558 1087.23 122.558ZM1092.73 123H1093.37V116.37H1092.73V123ZM1092.65 114.641H1093.44V113.77H1092.65V114.641ZM1095.97 123H1096.6V113.51H1095.97V123Z" fill="#B8C1CA"/>
<rect x="973" y="150" width="22" height="22" fill="white"/>
<rect x="973" y="182" width="22" height="22" fill="white"/>
<path d="M1008.13 168.08H1008.7L1008.83 166H1016.67V168.08H1017.24L1017.37 165.376H1016.14V156.9H1010.56V158.824C1010.56 161.658 1010.04 164.063 1009.11 165.376H1008.13V168.08ZM1009.89 165.376C1010.73 164.141 1011.22 161.749 1011.22 159.318V157.524H1015.46V165.376H1009.89ZM1020.99 166.156C1022.25 166.156 1023.07 165.532 1023.52 164.895V166H1024.15V161.866C1024.15 161.047 1023.91 160.436 1023.47 159.994C1022.99 159.513 1022.27 159.266 1021.38 159.266C1020.47 159.266 1019.75 159.5 1019.02 159.838L1019.26 160.397C1019.87 160.085 1020.53 159.864 1021.34 159.864C1022.7 159.864 1023.52 160.553 1023.52 161.892V162.178C1022.88 162.009 1022.25 161.892 1021.32 161.892C1019.61 161.892 1018.43 162.672 1018.43 164.05C1018.43 165.454 1019.62 166.156 1020.99 166.156ZM1021.03 165.558C1019.88 165.558 1019.11 164.999 1019.11 164.037C1019.11 163.088 1019.88 162.464 1021.29 162.464C1022.23 162.464 1022.98 162.62 1023.53 162.763V163.517C1023.53 164.726 1022.38 165.558 1021.03 165.558ZM1031.91 166.156C1033.89 166.156 1035.13 164.544 1035.13 162.685C1035.13 160.8 1033.9 159.214 1031.94 159.214C1030.06 159.214 1028.84 160.657 1028.71 162.373H1027.07V159.37H1026.44V166H1027.07V162.958H1028.71C1028.83 164.726 1030.02 166.156 1031.91 166.156ZM1031.94 165.558C1030.4 165.558 1029.4 164.284 1029.4 162.685C1029.4 161.099 1030.34 159.812 1031.91 159.812C1033.44 159.812 1034.44 161.086 1034.44 162.685C1034.44 164.271 1033.51 165.558 1031.94 165.558ZM1043.92 166.156C1045.15 166.156 1045.95 165.61 1046.63 164.843L1046.16 164.427C1045.6 165.051 1044.9 165.558 1043.96 165.558C1042.44 165.558 1041.23 164.284 1041.23 162.685C1041.23 161.099 1042.44 159.812 1043.91 159.812C1044.9 159.812 1045.55 160.319 1046.12 160.904L1046.56 160.449C1045.98 159.786 1045.17 159.214 1043.92 159.214C1042.03 159.214 1040.54 160.787 1040.54 162.685C1040.54 164.596 1042.01 166.156 1043.92 166.156ZM1051.36 166.156C1053.34 166.156 1054.78 164.544 1054.78 162.685C1054.78 160.8 1053.35 159.214 1051.39 159.214C1049.41 159.214 1047.97 160.826 1047.97 162.685C1047.97 164.57 1049.4 166.156 1051.36 166.156ZM1051.39 165.558C1049.85 165.558 1048.66 164.284 1048.66 162.685C1048.66 161.099 1049.87 159.812 1051.36 159.812C1052.86 159.812 1054.09 161.086 1054.09 162.685C1054.09 164.271 1052.86 165.558 1051.39 165.558ZM1056.74 166H1057.38V159.942H1061.12V159.37H1056.74V166ZM1062.29 166.104C1063.51 166.104 1064.32 165.61 1064.33 160.124V159.942H1067.59V166H1068.23V159.37H1063.72V159.721C1063.69 165.116 1063.07 165.506 1062.19 165.506C1062.06 165.506 1061.77 165.441 1061.68 165.415L1061.56 166C1061.74 166.052 1062.08 166.104 1062.29 166.104ZM1072.67 166.156C1073.93 166.156 1074.75 165.532 1075.2 164.895V166H1075.83V161.866C1075.83 161.047 1075.59 160.436 1075.15 159.994C1074.67 159.513 1073.96 159.266 1073.06 159.266C1072.15 159.266 1071.43 159.5 1070.71 159.838L1070.94 160.397C1071.55 160.085 1072.21 159.864 1073.02 159.864C1074.39 159.864 1075.2 160.553 1075.2 161.892V162.178C1074.57 162.009 1073.93 161.892 1073.01 161.892C1071.29 161.892 1070.11 162.672 1070.11 164.05C1070.11 165.454 1071.3 166.156 1072.67 166.156ZM1072.71 165.558C1071.56 165.558 1070.8 164.999 1070.8 164.037C1070.8 163.088 1071.56 162.464 1072.97 162.464C1073.92 162.464 1074.66 162.62 1075.22 162.763V163.517C1075.22 164.726 1074.06 165.558 1072.71 165.558ZM1081.04 166.156C1082.27 166.156 1083.07 165.61 1083.75 164.843L1083.28 164.427C1082.72 165.051 1082.02 165.558 1081.08 165.558C1079.56 165.558 1078.35 164.284 1078.35 162.685C1078.35 161.099 1079.56 159.812 1081.03 159.812C1082.02 159.812 1082.67 160.319 1083.24 160.904L1083.68 160.449C1083.1 159.786 1082.29 159.214 1081.04 159.214C1079.15 159.214 1077.66 160.787 1077.66 162.685C1077.66 164.596 1079.13 166.156 1081.04 166.156ZM1085.55 166H1086.18L1090.68 160.215V166H1091.32V159.37H1090.68L1086.18 165.155V159.37H1085.55V166ZM1096.53 166.156C1097.8 166.156 1098.6 165.636 1099.27 164.908L1098.83 164.518C1098.28 165.103 1097.58 165.558 1096.56 165.558C1095.26 165.558 1094.07 164.596 1093.96 162.945H1099.45C1099.47 162.841 1099.47 162.802 1099.47 162.685C1099.47 160.722 1098.28 159.214 1096.43 159.214C1094.63 159.214 1093.28 160.748 1093.28 162.672C1093.28 164.765 1094.79 166.156 1096.53 166.156ZM1093.96 162.373C1094.07 160.904 1095.09 159.799 1096.4 159.799C1097.92 159.799 1098.69 161.034 1098.78 162.373H1093.96ZM1105.22 166H1105.86V162.893H1110.27V166H1110.9V159.37H1110.27V162.321H1105.86V159.37H1105.22V166ZM1115.34 166.156C1116.6 166.156 1117.42 165.532 1117.87 164.895V166H1118.5V161.866C1118.5 161.047 1118.26 160.436 1117.82 159.994C1117.34 159.513 1116.63 159.266 1115.73 159.266C1114.82 159.266 1114.1 159.5 1113.38 159.838L1113.61 160.397C1114.22 160.085 1114.88 159.864 1115.69 159.864C1117.05 159.864 1117.87 160.553 1117.87 161.892V162.178C1117.24 162.009 1116.6 161.892 1115.68 161.892C1113.96 161.892 1112.78 162.672 1112.78 164.05C1112.78 165.454 1113.97 166.156 1115.34 166.156ZM1115.38 165.558C1114.23 165.558 1113.47 164.999 1113.47 164.037C1113.47 163.088 1114.23 162.464 1115.64 162.464C1116.59 162.464 1117.33 162.62 1117.89 162.763V163.517C1117.89 164.726 1116.73 165.558 1115.38 165.558ZM1124.69 168.08H1125.32V164.57C1125.87 165.402 1126.73 166.156 1128.05 166.156C1129.65 166.156 1131.28 164.843 1131.28 162.685C1131.28 160.501 1129.65 159.214 1128.05 159.214C1126.74 159.214 1125.89 159.981 1125.32 160.852V159.37H1124.69V168.08ZM1127.99 165.545C1126.61 165.545 1125.28 164.401 1125.28 162.698C1125.28 160.982 1126.61 159.825 1127.99 159.825C1129.38 159.825 1130.59 160.943 1130.59 162.685C1130.59 164.492 1129.43 165.545 1127.99 165.545ZM1135.28 166.156C1136.54 166.156 1137.36 165.532 1137.82 164.895V166H1138.44V161.866C1138.44 161.047 1138.21 160.436 1137.77 159.994C1137.28 159.513 1136.57 159.266 1135.67 159.266C1134.76 159.266 1134.05 159.5 1133.32 159.838L1133.55 160.397C1134.16 160.085 1134.83 159.864 1135.63 159.864C1137 159.864 1137.82 160.553 1137.82 161.892V162.178C1137.18 162.009 1136.54 161.892 1135.62 161.892C1133.9 161.892 1132.72 162.672 1132.72 164.05C1132.72 165.454 1133.92 166.156 1135.28 166.156ZM1135.32 165.558C1134.18 165.558 1133.41 164.999 1133.41 164.037C1133.41 163.088 1134.18 162.464 1135.58 162.464C1136.53 162.464 1137.27 162.62 1137.83 162.763V163.517C1137.83 164.726 1136.67 165.558 1135.32 165.558ZM1143.66 166.156C1144.88 166.156 1145.69 165.61 1146.36 164.843L1145.89 164.427C1145.33 165.051 1144.63 165.558 1143.7 165.558C1142.18 165.558 1140.97 164.284 1140.97 162.685C1140.97 161.099 1142.18 159.812 1143.64 159.812C1144.63 159.812 1145.28 160.319 1145.85 160.904L1146.3 160.449C1145.71 159.786 1144.91 159.214 1143.66 159.214C1141.76 159.214 1140.28 160.787 1140.28 162.685C1140.28 164.596 1141.75 166.156 1143.66 166.156ZM1151.08 166.156C1152.31 166.156 1153.11 165.61 1153.79 164.843L1153.32 164.427C1152.76 165.051 1152.06 165.558 1151.12 165.558C1149.6 165.558 1148.39 164.284 1148.39 162.685C1148.39 161.099 1149.6 159.812 1151.07 159.812C1152.06 159.812 1152.71 160.319 1153.28 160.904L1153.72 160.449C1153.14 159.786 1152.33 159.214 1151.08 159.214C1149.19 159.214 1147.7 160.787 1147.7 162.685C1147.7 164.596 1149.17 166.156 1151.08 166.156ZM1155.59 166H1158.32C1159.77 166 1160.73 165.155 1160.73 163.868C1160.73 162.503 1159.58 161.918 1158.2 161.918H1156.22V159.37H1155.59V166ZM1156.22 165.428V162.49H1158.16C1159.32 162.49 1160.04 162.997 1160.04 163.894C1160.04 164.869 1159.33 165.428 1158.21 165.428H1156.22ZM1162.06 166H1162.7V159.37H1162.06V166ZM1164.69 166.104C1165.91 166.104 1166.72 165.61 1166.73 160.124V159.942H1170V166H1170.63V159.37H1166.12V159.721C1166.1 165.116 1165.47 165.506 1164.59 165.506C1164.46 165.506 1164.17 165.441 1164.08 165.415L1163.96 166C1164.15 166.052 1164.48 166.104 1164.69 166.104ZM1173.05 166H1173.69V164.388L1175.3 162.763L1177.93 166H1178.74L1175.75 162.308L1178.64 159.37H1177.8L1173.69 163.621V159.37H1173.05V166ZM1181.08 168.119C1182.03 168.119 1182.71 167.625 1183.29 166.234L1186.17 159.37H1185.47L1183.07 165.298L1180.32 159.37H1179.58L1182.76 165.961C1182.27 167.118 1181.81 167.521 1181.12 167.521C1180.63 167.521 1180.34 167.443 1179.99 167.274L1179.77 167.833C1180.21 168.028 1180.58 168.119 1181.08 168.119ZM1191.82 168.08H1192.46V164.57C1193 165.402 1193.86 166.156 1195.19 166.156C1196.78 166.156 1198.41 164.843 1198.41 162.685C1198.41 160.501 1196.78 159.214 1195.19 159.214C1193.87 159.214 1193.03 159.981 1192.46 160.852V159.37H1191.82V168.08ZM1195.12 165.545C1193.74 165.545 1192.42 164.401 1192.42 162.698C1192.42 160.982 1193.74 159.825 1195.12 159.825C1196.51 159.825 1197.72 160.943 1197.72 162.685C1197.72 164.492 1196.56 165.545 1195.12 165.545ZM1203.2 166.156C1204.47 166.156 1205.26 165.636 1205.94 164.908L1205.5 164.518C1204.95 165.103 1204.25 165.558 1203.22 165.558C1201.92 165.558 1200.74 164.596 1200.62 162.945H1206.12C1206.13 162.841 1206.13 162.802 1206.13 162.685C1206.13 160.722 1204.95 159.214 1203.09 159.214C1201.3 159.214 1199.95 160.748 1199.95 162.672C1199.95 164.765 1201.45 166.156 1203.2 166.156ZM1200.62 162.373C1200.74 160.904 1201.75 159.799 1203.07 159.799C1204.59 159.799 1205.35 161.034 1205.44 162.373H1200.62ZM1207.99 166H1208.63V164.388L1210.24 162.763L1212.87 166H1213.67L1210.68 162.308L1213.58 159.37H1212.74L1208.63 163.621V159.37H1207.99V166ZM1214.79 166.104C1216.01 166.104 1216.81 165.61 1216.83 160.124V159.942H1220.09V166H1220.73V159.37H1216.22V159.721C1216.19 165.116 1215.57 165.506 1214.68 165.506C1214.55 165.506 1214.27 165.441 1214.18 165.415L1214.06 166C1214.24 166.052 1214.58 166.104 1214.79 166.104ZM1225.17 166.156C1226.43 166.156 1227.25 165.532 1227.7 164.895V166H1228.32V161.866C1228.32 161.047 1228.09 160.436 1227.65 159.994C1227.17 159.513 1226.45 159.266 1225.56 159.266C1224.65 159.266 1223.93 159.5 1223.2 159.838L1223.44 160.397C1224.05 160.085 1224.71 159.864 1225.52 159.864C1226.88 159.864 1227.7 160.553 1227.7 161.892V162.178C1227.06 162.009 1226.43 161.892 1225.5 161.892C1223.79 161.892 1222.6 162.672 1222.6 164.05C1222.6 165.454 1223.8 166.156 1225.17 166.156ZM1225.2 165.558C1224.06 165.558 1223.29 164.999 1223.29 164.037C1223.29 163.088 1224.06 162.464 1225.46 162.464C1226.41 162.464 1227.15 162.62 1227.71 162.763V163.517C1227.71 164.726 1226.56 165.558 1225.2 165.558ZM1230.62 166H1231.23V160.475L1233.87 164.141L1236.53 160.475V166H1237.17V159.37H1236.6L1233.89 163.179L1231.19 159.37H1230.62V166ZM1239.59 166H1240.23V162.893H1244.63V166H1245.27V159.37H1244.63V162.321H1240.23V159.37H1239.59V166ZM1247.69 166H1250.42C1251.88 166 1252.84 165.155 1252.84 163.868C1252.84 162.503 1251.68 161.918 1250.3 161.918H1248.33V159.37H1247.69V166ZM1248.33 165.428V162.49H1250.26C1251.42 162.49 1252.15 162.997 1252.15 163.894C1252.15 164.869 1251.43 165.428 1250.32 165.428H1248.33ZM1254.16 166H1254.8V159.37H1254.16V166ZM1256.6 166H1257.37L1259.71 163.049L1262.05 166H1262.84L1260.12 162.607L1262.74 159.37H1261.97L1259.73 162.178L1257.5 159.37H1256.7L1259.32 162.62L1256.6 166ZM1268.54 166H1269.15V160.475L1271.79 164.141L1274.45 160.475V166H1275.09V159.37H1274.52L1271.81 163.179L1269.11 159.37H1268.54V166ZM1279.53 166.156C1280.79 166.156 1281.61 165.532 1282.06 164.895V166H1282.69V161.866C1282.69 161.047 1282.45 160.436 1282.01 159.994C1281.53 159.513 1280.81 159.266 1279.92 159.266C1279.01 159.266 1278.29 159.5 1277.56 159.838L1277.8 160.397C1278.41 160.085 1279.07 159.864 1279.88 159.864C1281.24 159.864 1282.06 160.553 1282.06 161.892V162.178C1281.42 162.009 1280.79 161.892 1279.86 161.892C1278.15 161.892 1276.97 162.672 1276.97 164.05C1276.97 165.454 1278.16 166.156 1279.53 166.156ZM1279.57 165.558C1278.42 165.558 1277.65 164.999 1277.65 164.037C1277.65 163.088 1278.42 162.464 1279.83 162.464C1280.77 162.464 1281.52 162.62 1282.07 162.763V163.517C1282.07 164.726 1280.92 165.558 1279.57 165.558ZM1286.64 166H1287.28V159.942H1289.76V159.37H1284.16V159.942H1286.64V166ZM1294.16 166.156C1295.43 166.156 1296.22 165.636 1296.9 164.908L1296.46 164.518C1295.91 165.103 1295.21 165.558 1294.18 165.558C1292.88 165.558 1291.7 164.596 1291.58 162.945H1297.08C1297.1 162.841 1297.1 162.802 1297.1 162.685C1297.1 160.722 1295.91 159.214 1294.05 159.214C1292.26 159.214 1290.91 160.748 1290.91 162.672C1290.91 164.765 1292.42 166.156 1294.16 166.156ZM1291.58 162.373C1291.7 160.904 1292.71 159.799 1294.03 159.799C1295.55 159.799 1296.32 161.034 1296.41 162.373H1291.58ZM1298.95 168.08H1299.59V164.57C1300.14 165.402 1301 166.156 1302.32 166.156C1303.92 166.156 1305.55 164.843 1305.55 162.685C1305.55 160.501 1303.92 159.214 1302.32 159.214C1301.01 159.214 1300.16 159.981 1299.59 160.852V159.37H1298.95V168.08ZM1302.26 165.545C1300.88 165.545 1299.55 164.401 1299.55 162.698C1299.55 160.982 1300.88 159.825 1302.26 159.825C1303.65 159.825 1304.86 160.943 1304.86 162.685C1304.86 164.492 1303.7 165.545 1302.26 165.545ZM1307.54 166H1308.17L1312.67 160.215V166H1313.31V159.37H1312.67L1308.17 165.155V159.37H1307.54V166ZM1317.74 166.156C1319 166.156 1319.82 165.532 1320.27 164.895V166H1320.9V161.866C1320.9 161.047 1320.66 160.436 1320.22 159.994C1319.74 159.513 1319.03 159.266 1318.13 159.266C1317.22 159.266 1316.5 159.5 1315.78 159.838L1316.01 160.397C1316.62 160.085 1317.28 159.864 1318.09 159.864C1319.46 159.864 1320.27 160.553 1320.27 161.892V162.178C1319.64 162.009 1319 161.892 1318.08 161.892C1316.36 161.892 1315.18 162.672 1315.18 164.05C1315.18 165.454 1316.37 166.156 1317.74 166.156ZM1317.78 165.558C1316.63 165.558 1315.87 164.999 1315.87 164.037C1315.87 163.088 1316.63 162.464 1318.04 162.464C1318.99 162.464 1319.73 162.62 1320.29 162.763V163.517C1320.29 164.726 1319.13 165.558 1317.78 165.558ZM1322.76 166.104C1323.98 166.104 1324.79 165.61 1324.8 160.124V159.942H1328.06V166H1328.7V159.37H1324.19V159.721C1324.16 165.116 1323.54 165.506 1322.66 165.506C1322.53 165.506 1322.24 165.441 1322.15 165.415L1322.03 166C1322.21 166.052 1322.55 166.104 1322.76 166.104ZM1334.06 166.156C1336.04 166.156 1337.48 164.544 1337.48 162.685C1337.48 160.8 1336.05 159.214 1334.09 159.214C1332.11 159.214 1330.67 160.826 1330.67 162.685C1330.67 164.57 1332.1 166.156 1334.06 166.156ZM1334.09 165.558C1332.55 165.558 1331.36 164.284 1331.36 162.685C1331.36 161.099 1332.57 159.812 1334.06 159.812C1335.56 159.812 1336.79 161.086 1336.79 162.685C1336.79 164.271 1335.56 165.558 1334.09 165.558ZM1339.44 166H1342.61C1344.04 166 1344.99 165.298 1344.99 164.193C1344.99 163.257 1344.29 162.75 1343.5 162.542C1344.03 162.321 1344.61 161.918 1344.61 161.021C1344.61 160.007 1343.76 159.37 1342.47 159.37H1339.44V166ZM1340.08 165.428V162.867H1342.38C1343.65 162.867 1344.33 163.335 1344.33 164.102C1344.33 164.921 1343.64 165.428 1342.53 165.428H1340.08ZM1340.08 162.334V159.942H1342.42C1343.42 159.942 1343.96 160.397 1343.96 161.06C1343.96 161.892 1343.3 162.334 1342.38 162.334H1340.08ZM1346.62 167.391C1347.4 167.092 1347.7 166.663 1347.7 165.857V164.895H1346.84V166H1347.19V166.117C1347.19 166.546 1346.98 166.806 1346.46 167.066L1346.62 167.391ZM1355.89 166.156C1357.15 166.156 1357.97 165.532 1358.42 164.895V166H1359.05V161.866C1359.05 161.047 1358.81 160.436 1358.37 159.994C1357.89 159.513 1357.18 159.266 1356.28 159.266C1355.37 159.266 1354.65 159.5 1353.93 159.838L1354.16 160.397C1354.77 160.085 1355.43 159.864 1356.24 159.864C1357.61 159.864 1358.42 160.553 1358.42 161.892V162.178C1357.79 162.009 1357.15 161.892 1356.23 161.892C1354.51 161.892 1353.33 162.672 1353.33 164.05C1353.33 165.454 1354.52 166.156 1355.89 166.156ZM1355.93 165.558C1354.78 165.558 1354.02 164.999 1354.02 164.037C1354.02 163.088 1354.78 162.464 1356.19 162.464C1357.14 162.464 1357.88 162.62 1358.44 162.763V163.517C1358.44 164.726 1357.28 165.558 1355.93 165.558ZM1361.34 166H1361.98V164.388L1363.59 162.763L1366.21 166H1367.02L1364.03 162.308L1366.93 159.37H1366.08L1361.98 163.621V159.37H1361.34V166ZM1374.49 167.872H1375.01L1375.14 165.428H1374.07V159.37H1373.44V165.428H1369.2V159.37H1368.56V166H1374.49V167.872ZM1376.74 166H1377.38L1381.87 160.215V166H1382.51V159.37H1381.87L1377.38 165.155V159.37H1376.74V166ZM1384.93 166H1385.56L1390.06 160.215V166H1390.7V159.37H1390.06L1385.56 165.155V159.37H1384.93V166ZM1387.81 158.291C1388.74 158.291 1389.41 157.641 1389.57 156.796L1389.03 156.679C1388.88 157.264 1388.49 157.628 1387.81 157.628C1387.14 157.628 1386.75 157.264 1386.59 156.679L1386.06 156.796C1386.21 157.641 1386.89 158.291 1387.81 158.291ZM1397.01 166H1397.65L1402.15 160.215V166H1402.78V159.37H1402.15L1397.65 165.155V159.37H1397.01V166ZM1412.02 166.156C1413.25 166.156 1414.05 165.61 1414.73 164.843L1414.26 164.427C1413.7 165.051 1413 165.558 1412.06 165.558C1410.54 165.558 1409.33 164.284 1409.33 162.685C1409.33 161.099 1410.54 159.812 1412.01 159.812C1413 159.812 1413.65 160.319 1414.22 160.904L1414.66 160.449C1414.08 159.786 1413.27 159.214 1412.02 159.214C1410.13 159.214 1408.64 160.787 1408.64 162.685C1408.64 164.596 1410.11 166.156 1412.02 166.156ZM1416.53 166H1417.16V164.388L1418.77 162.763L1421.4 166H1422.21L1419.22 162.308L1422.12 159.37H1421.27L1417.16 163.621V159.37H1416.53V166ZM1423.75 166H1424.39L1428.88 160.215V166H1429.52V159.37H1428.88L1424.39 165.155V159.37H1423.75V166ZM1430.91 167.872H1431.44L1431.57 166H1437.62V167.872H1438.14L1438.27 165.428H1437.2V159.37H1432.76V160.774C1432.76 162.984 1432.37 164.466 1431.78 165.428H1430.91V167.872ZM1432.48 165.428C1433 164.544 1433.37 162.906 1433.37 161.138V159.942H1436.57V165.428H1432.48ZM1442.81 166.156C1444.79 166.156 1446.23 164.544 1446.23 162.685C1446.23 160.8 1444.8 159.214 1442.84 159.214C1440.86 159.214 1439.42 160.826 1439.42 162.685C1439.42 164.57 1440.85 166.156 1442.81 166.156ZM1442.84 165.558C1441.3 165.558 1440.11 164.284 1440.11 162.685C1440.11 161.099 1441.32 159.812 1442.81 159.812C1444.31 159.812 1445.54 161.086 1445.54 162.685C1445.54 164.271 1444.31 165.558 1442.84 165.558ZM1448.19 166H1448.82V164.388L1450.44 162.763L1453.06 166H1453.87L1450.88 162.308L1453.78 159.37H1452.93L1448.82 163.621V159.37H1448.19V166Z" fill="white"/>
<path d="M1008.13 200.08H1008.7L1008.83 198H1016.67V200.08H1017.24L1017.37 197.376H1016.14V188.9H1010.56V190.824C1010.56 193.658 1010.04 196.063 1009.11 197.376H1008.13V200.08ZM1009.89 197.376C1010.73 196.141 1011.22 193.749 1011.22 191.318V189.524H1015.46V197.376H1009.89ZM1020.99 198.156C1022.25 198.156 1023.07 197.532 1023.52 196.895V198H1024.15V193.866C1024.15 193.047 1023.91 192.436 1023.47 191.994C1022.99 191.513 1022.27 191.266 1021.38 191.266C1020.47 191.266 1019.75 191.5 1019.02 191.838L1019.26 192.397C1019.87 192.085 1020.53 191.864 1021.34 191.864C1022.7 191.864 1023.52 192.553 1023.52 193.892V194.178C1022.88 194.009 1022.25 193.892 1021.32 193.892C1019.61 193.892 1018.43 194.672 1018.43 196.05C1018.43 197.454 1019.62 198.156 1020.99 198.156ZM1021.03 197.558C1019.88 197.558 1019.11 196.999 1019.11 196.037C1019.11 195.088 1019.88 194.464 1021.29 194.464C1022.23 194.464 1022.98 194.62 1023.53 194.763V195.517C1023.53 196.726 1022.38 197.558 1021.03 197.558ZM1031.91 198.156C1033.89 198.156 1035.13 196.544 1035.13 194.685C1035.13 192.8 1033.9 191.214 1031.94 191.214C1030.06 191.214 1028.84 192.657 1028.71 194.373H1027.07V191.37H1026.44V198H1027.07V194.958H1028.71C1028.83 196.726 1030.02 198.156 1031.91 198.156ZM1031.94 197.558C1030.4 197.558 1029.4 196.284 1029.4 194.685C1029.4 193.099 1030.34 191.812 1031.91 191.812C1033.44 191.812 1034.44 193.086 1034.44 194.685C1034.44 196.271 1033.51 197.558 1031.94 197.558ZM1043.92 198.156C1045.15 198.156 1045.95 197.61 1046.63 196.843L1046.16 196.427C1045.6 197.051 1044.9 197.558 1043.96 197.558C1042.44 197.558 1041.23 196.284 1041.23 194.685C1041.23 193.099 1042.44 191.812 1043.91 191.812C1044.9 191.812 1045.55 192.319 1046.12 192.904L1046.56 192.449C1045.98 191.786 1045.17 191.214 1043.92 191.214C1042.03 191.214 1040.54 192.787 1040.54 194.685C1040.54 196.596 1042.01 198.156 1043.92 198.156ZM1051.36 198.156C1053.34 198.156 1054.78 196.544 1054.78 194.685C1054.78 192.8 1053.35 191.214 1051.39 191.214C1049.41 191.214 1047.97 192.826 1047.97 194.685C1047.97 196.57 1049.4 198.156 1051.36 198.156ZM1051.39 197.558C1049.85 197.558 1048.66 196.284 1048.66 194.685C1048.66 193.099 1049.87 191.812 1051.36 191.812C1052.86 191.812 1054.09 193.086 1054.09 194.685C1054.09 196.271 1052.86 197.558 1051.39 197.558ZM1056.74 198H1057.38V191.942H1061.12V191.37H1056.74V198ZM1062.29 198.104C1063.51 198.104 1064.32 197.61 1064.33 192.124V191.942H1067.59V198H1068.23V191.37H1063.72V191.721C1063.69 197.116 1063.07 197.506 1062.19 197.506C1062.06 197.506 1061.77 197.441 1061.68 197.415L1061.56 198C1061.74 198.052 1062.08 198.104 1062.29 198.104ZM1072.67 198.156C1073.93 198.156 1074.75 197.532 1075.2 196.895V198H1075.83V193.866C1075.83 193.047 1075.59 192.436 1075.15 191.994C1074.67 191.513 1073.96 191.266 1073.06 191.266C1072.15 191.266 1071.43 191.5 1070.71 191.838L1070.94 192.397C1071.55 192.085 1072.21 191.864 1073.02 191.864C1074.39 191.864 1075.2 192.553 1075.2 193.892V194.178C1074.57 194.009 1073.93 193.892 1073.01 193.892C1071.29 193.892 1070.11 194.672 1070.11 196.05C1070.11 197.454 1071.3 198.156 1072.67 198.156ZM1072.71 197.558C1071.56 197.558 1070.8 196.999 1070.8 196.037C1070.8 195.088 1071.56 194.464 1072.97 194.464C1073.92 194.464 1074.66 194.62 1075.22 194.763V195.517C1075.22 196.726 1074.06 197.558 1072.71 197.558ZM1081.04 198.156C1082.27 198.156 1083.07 197.61 1083.75 196.843L1083.28 196.427C1082.72 197.051 1082.02 197.558 1081.08 197.558C1079.56 197.558 1078.35 196.284 1078.35 194.685C1078.35 193.099 1079.56 191.812 1081.03 191.812C1082.02 191.812 1082.67 192.319 1083.24 192.904L1083.68 192.449C1083.1 191.786 1082.29 191.214 1081.04 191.214C1079.15 191.214 1077.66 192.787 1077.66 194.685C1077.66 196.596 1079.13 198.156 1081.04 198.156ZM1085.55 198H1086.18L1090.68 192.215V198H1091.32V191.37H1090.68L1086.18 197.155V191.37H1085.55V198ZM1096.53 198.156C1097.8 198.156 1098.6 197.636 1099.27 196.908L1098.83 196.518C1098.28 197.103 1097.58 197.558 1096.56 197.558C1095.26 197.558 1094.07 196.596 1093.96 194.945H1099.45C1099.47 194.841 1099.47 194.802 1099.47 194.685C1099.47 192.722 1098.28 191.214 1096.43 191.214C1094.63 191.214 1093.28 192.748 1093.28 194.672C1093.28 196.765 1094.79 198.156 1096.53 198.156ZM1093.96 194.373C1094.07 192.904 1095.09 191.799 1096.4 191.799C1097.92 191.799 1098.69 193.034 1098.78 194.373H1093.96ZM1105.22 198H1105.86V194.893H1110.27V198H1110.9V191.37H1110.27V194.321H1105.86V191.37H1105.22V198ZM1115.34 198.156C1116.6 198.156 1117.42 197.532 1117.87 196.895V198H1118.5V193.866C1118.5 193.047 1118.26 192.436 1117.82 191.994C1117.34 191.513 1116.63 191.266 1115.73 191.266C1114.82 191.266 1114.1 191.5 1113.38 191.838L1113.61 192.397C1114.22 192.085 1114.88 191.864 1115.69 191.864C1117.05 191.864 1117.87 192.553 1117.87 193.892V194.178C1117.24 194.009 1116.6 193.892 1115.68 193.892C1113.96 193.892 1112.78 194.672 1112.78 196.05C1112.78 197.454 1113.97 198.156 1115.34 198.156ZM1115.38 197.558C1114.23 197.558 1113.47 196.999 1113.47 196.037C1113.47 195.088 1114.23 194.464 1115.64 194.464C1116.59 194.464 1117.33 194.62 1117.89 194.763V195.517C1117.89 196.726 1116.73 197.558 1115.38 197.558ZM1127.62 198.156C1129.6 198.156 1131.04 196.544 1131.04 194.685C1131.04 192.8 1129.61 191.214 1127.65 191.214C1125.67 191.214 1124.23 192.826 1124.23 194.685C1124.23 196.57 1125.66 198.156 1127.62 198.156ZM1127.65 197.558C1126.12 197.558 1124.92 196.284 1124.92 194.685C1124.92 193.099 1126.13 191.812 1127.62 191.812C1129.12 191.812 1130.35 193.086 1130.35 194.685C1130.35 196.271 1129.12 197.558 1127.65 197.558ZM1136.03 198.156C1137.97 198.156 1139.38 196.57 1139.38 194.724C1139.38 192.904 1137.95 191.344 1136.2 191.344C1134.77 191.344 1133.87 191.994 1133.33 192.904C1133.46 191.37 1133.96 190.655 1135.38 190.278L1139.02 189.316L1138.84 188.744L1135.07 189.693C1132.82 190.265 1132.7 192.306 1132.7 194.516C1132.7 196.726 1134.11 198.156 1136.03 198.156ZM1136.06 197.558C1134.56 197.558 1133.39 196.31 1133.39 194.75C1133.39 193.203 1134.5 191.942 1136.03 191.942C1137.52 191.942 1138.69 193.19 1138.69 194.75C1138.69 196.297 1137.59 197.558 1136.06 197.558ZM1141.34 200.08H1141.98V196.57C1142.52 197.402 1143.38 198.156 1144.71 198.156C1146.31 198.156 1147.93 196.843 1147.93 194.685C1147.93 192.501 1146.31 191.214 1144.71 191.214C1143.4 191.214 1142.55 191.981 1141.98 192.852V191.37H1141.34V200.08ZM1144.64 197.545C1143.27 197.545 1141.94 196.401 1141.94 194.698C1141.94 192.982 1143.27 191.825 1144.64 191.825C1146.03 191.825 1147.24 192.943 1147.24 194.685C1147.24 196.492 1146.09 197.545 1144.64 197.545ZM1151.94 198.156C1153.2 198.156 1154.02 197.532 1154.47 196.895V198H1155.1V193.866C1155.1 193.047 1154.86 192.436 1154.42 191.994C1153.94 191.513 1153.23 191.266 1152.33 191.266C1151.42 191.266 1150.7 191.5 1149.98 191.838L1150.21 192.397C1150.82 192.085 1151.48 191.864 1152.29 191.864C1153.65 191.864 1154.47 192.553 1154.47 193.892V194.178C1153.84 194.009 1153.2 193.892 1152.28 193.892C1150.56 193.892 1149.38 194.672 1149.38 196.05C1149.38 197.454 1150.57 198.156 1151.94 198.156ZM1151.98 197.558C1150.83 197.558 1150.07 196.999 1150.07 196.037C1150.07 195.088 1150.83 194.464 1152.24 194.464C1153.19 194.464 1153.93 194.62 1154.49 194.763V195.517C1154.49 196.726 1153.33 197.558 1151.98 197.558ZM1160.42 198.156C1162.35 198.156 1163.77 196.57 1163.77 194.724C1163.77 192.904 1162.34 191.344 1160.59 191.344C1159.16 191.344 1158.26 191.994 1157.71 192.904C1157.84 191.37 1158.35 190.655 1159.77 190.278L1163.41 189.316L1163.23 188.744L1159.46 189.693C1157.21 190.265 1157.09 192.306 1157.09 194.516C1157.09 196.726 1158.49 198.156 1160.42 198.156ZM1160.44 197.558C1158.95 197.558 1157.78 196.31 1157.78 194.75C1157.78 193.203 1158.88 191.942 1160.42 191.942C1161.91 191.942 1163.08 193.19 1163.08 194.75C1163.08 196.297 1161.98 197.558 1160.44 197.558ZM1168.67 198.156C1170.64 198.156 1172.09 196.544 1172.09 194.685C1172.09 192.8 1170.66 191.214 1168.69 191.214C1166.72 191.214 1165.27 192.826 1165.27 194.685C1165.27 196.57 1166.7 198.156 1168.67 198.156ZM1168.69 197.558C1167.16 197.558 1165.96 196.284 1165.96 194.685C1165.96 193.099 1167.17 191.812 1168.67 191.812C1170.16 191.812 1171.4 193.086 1171.4 194.685C1171.4 196.271 1170.16 197.558 1168.69 197.558ZM1175.71 198H1176.35V191.942H1178.83V191.37H1173.23V191.942H1175.71V198ZM1180.43 198H1181.07V196.388L1182.68 194.763L1185.31 198H1186.11L1183.12 194.308L1186.02 191.37H1185.18L1181.07 195.621V191.37H1180.43V198ZM1188.46 200.119C1189.41 200.119 1190.09 199.625 1190.67 198.234L1193.54 191.37H1192.84L1190.45 197.298L1187.69 191.37H1186.95L1190.14 197.961C1189.64 199.118 1189.19 199.521 1188.5 199.521C1188.01 199.521 1187.72 199.443 1187.37 199.274L1187.15 199.833C1187.59 200.028 1187.95 200.119 1188.46 200.119ZM1199.19 198H1199.81V192.475L1202.44 196.141L1205.11 192.475V198H1205.75V191.37H1205.17L1202.47 195.179L1199.77 191.37H1199.19V198ZM1211.11 198.156C1213.08 198.156 1214.53 196.544 1214.53 194.685C1214.53 192.8 1213.1 191.214 1211.13 191.214C1209.16 191.214 1207.71 192.826 1207.71 194.685C1207.71 196.57 1209.14 198.156 1211.11 198.156ZM1211.13 197.558C1209.6 197.558 1208.4 196.284 1208.4 194.685C1208.4 193.099 1209.61 191.812 1211.11 191.812C1212.6 191.812 1213.84 193.086 1213.84 194.685C1213.84 196.271 1212.6 197.558 1211.13 197.558ZM1216.49 198H1217.12L1221.62 192.215V198H1222.26V191.37H1221.62L1217.12 197.155V191.37H1216.49V198ZM1224.05 198H1224.82L1227.16 195.049L1229.5 198H1230.29L1227.57 194.607L1230.19 191.37H1229.42L1227.18 194.178L1224.95 191.37H1224.15L1226.77 194.62L1224.05 198ZM1235.99 198H1236.62V191.942H1240.86V198H1241.5V191.37H1235.99V198ZM1246.71 198.156C1247.99 198.156 1248.78 197.636 1249.46 196.908L1249.02 196.518C1248.47 197.103 1247.77 197.558 1246.74 197.558C1245.44 197.558 1244.26 196.596 1244.14 194.945H1249.64C1249.65 194.841 1249.65 194.802 1249.65 194.685C1249.65 192.722 1248.47 191.214 1246.61 191.214C1244.82 191.214 1243.46 192.748 1243.46 194.672C1243.46 196.765 1244.97 198.156 1246.71 198.156ZM1244.14 194.373C1244.26 192.904 1245.27 191.799 1246.58 191.799C1248.11 191.799 1248.87 193.034 1248.96 194.373H1244.14ZM1251.51 200.08H1252.15V196.57C1252.69 197.402 1253.55 198.156 1254.88 198.156C1256.48 198.156 1258.1 196.843 1258.1 194.685C1258.1 192.501 1256.48 191.214 1254.88 191.214C1253.57 191.214 1252.72 191.981 1252.15 192.852V191.37H1251.51V200.08ZM1254.81 197.545C1253.44 197.545 1252.11 196.401 1252.11 194.698C1252.11 192.982 1253.44 191.825 1254.81 191.825C1256.2 191.825 1257.41 192.943 1257.41 194.685C1257.41 196.492 1256.26 197.545 1254.81 197.545ZM1263.02 198.156C1264.24 198.156 1265.05 197.61 1265.72 196.843L1265.25 196.427C1264.7 197.051 1263.99 197.558 1263.06 197.558C1261.54 197.558 1260.33 196.284 1260.33 194.685C1260.33 193.099 1261.54 191.812 1263.01 191.812C1263.99 191.812 1264.64 192.319 1265.22 192.904L1265.66 192.449C1265.07 191.786 1264.27 191.214 1263.02 191.214C1261.12 191.214 1259.64 192.787 1259.64 194.685C1259.64 196.596 1261.11 198.156 1263.02 198.156ZM1270.46 198.156C1272.43 198.156 1273.88 196.544 1273.88 194.685C1273.88 192.8 1272.45 191.214 1270.48 191.214C1268.51 191.214 1267.07 192.826 1267.07 194.685C1267.07 196.57 1268.5 198.156 1270.46 198.156ZM1270.48 197.558C1268.95 197.558 1267.75 196.284 1267.75 194.685C1267.75 193.099 1268.96 191.812 1270.46 191.812C1271.95 191.812 1273.19 193.086 1273.19 194.685C1273.19 196.271 1271.95 197.558 1270.48 197.558ZM1275.84 198H1276.47V194.893H1280.88V198H1281.52V191.37H1280.88V194.321H1276.47V191.37H1275.84V198ZM1285.95 198.156C1287.21 198.156 1288.03 197.532 1288.49 196.895V198H1289.11V193.866C1289.11 193.047 1288.88 192.436 1288.43 191.994C1287.95 191.513 1287.24 191.266 1286.34 191.266C1285.43 191.266 1284.72 191.5 1283.99 191.838L1284.22 192.397C1284.83 192.085 1285.5 191.864 1286.3 191.864C1287.67 191.864 1288.49 192.553 1288.49 193.892V194.178C1287.85 194.009 1287.21 193.892 1286.29 193.892C1284.57 193.892 1283.39 194.672 1283.39 196.05C1283.39 197.454 1284.59 198.156 1285.95 198.156ZM1285.99 197.558C1284.85 197.558 1284.08 196.999 1284.08 196.037C1284.08 195.088 1284.85 194.464 1286.25 194.464C1287.2 194.464 1287.94 194.62 1288.5 194.763V195.517C1288.5 196.726 1287.34 197.558 1285.99 197.558ZM1290.97 198.104C1292.19 198.104 1293 197.61 1293.01 192.124V191.942H1296.28V198H1296.91V191.37H1292.4V191.721C1292.38 197.116 1291.75 197.506 1290.87 197.506C1290.74 197.506 1290.45 197.441 1290.36 197.415L1290.24 198C1290.43 198.052 1290.76 198.104 1290.97 198.104ZM1299.33 198H1302.06C1303.52 198 1304.48 197.155 1304.48 195.868C1304.48 194.503 1303.33 193.918 1301.95 193.918H1299.97V191.37H1299.33V198ZM1299.97 197.428V194.49H1301.91C1303.07 194.49 1303.79 194.997 1303.79 195.894C1303.79 196.869 1303.08 197.428 1301.96 197.428H1299.97ZM1306.22 198H1306.85V194.893H1311.26V198H1311.9V191.37H1311.26V194.321H1306.85V191.37H1306.22V198ZM1314.32 198H1317.05C1318.5 198 1319.46 197.155 1319.46 195.868C1319.46 194.503 1318.31 193.918 1316.93 193.918H1314.95V191.37H1314.32V198ZM1314.95 197.428V194.49H1316.89C1318.05 194.49 1318.77 194.997 1318.77 195.894C1318.77 196.869 1318.06 197.428 1316.94 197.428H1314.95ZM1320.79 198H1321.43V191.37H1320.79V198ZM1323.23 198H1323.99L1326.33 195.049L1328.67 198H1329.47L1326.75 194.607L1329.36 191.37H1328.59L1326.36 194.178L1324.12 191.37H1323.33L1325.94 194.62L1323.23 198ZM1334.13 199.872H1334.67L1334.8 198H1340.84V199.872H1341.36L1341.49 197.428H1340.43V191.37H1335.98V192.774C1335.98 194.984 1335.59 196.466 1335.01 197.428H1334.13V199.872ZM1335.71 197.428C1336.23 196.544 1336.59 194.906 1336.59 193.138V191.942H1339.79V197.428H1335.71ZM1345.11 198.156C1346.37 198.156 1347.19 197.532 1347.65 196.895V198H1348.27V193.866C1348.27 193.047 1348.04 192.436 1347.59 191.994C1347.11 191.513 1346.4 191.266 1345.5 191.266C1344.59 191.266 1343.88 191.5 1343.15 191.838L1343.38 192.397C1343.99 192.085 1344.66 191.864 1345.46 191.864C1346.83 191.864 1347.65 192.553 1347.65 193.892V194.178C1347.01 194.009 1346.37 193.892 1345.45 193.892C1343.73 193.892 1342.55 194.672 1342.55 196.05C1342.55 197.454 1343.75 198.156 1345.11 198.156ZM1345.15 197.558C1344.01 197.558 1343.24 196.999 1343.24 196.037C1343.24 195.088 1344.01 194.464 1345.41 194.464C1346.36 194.464 1347.1 194.62 1347.66 194.763V195.517C1347.66 196.726 1346.5 197.558 1345.15 197.558ZM1350.56 198H1351.2V194.893H1355.6V198H1356.24V191.37H1355.6V194.321H1351.2V191.37H1350.56V198ZM1358.66 198H1359.3V194.893H1363.7V198H1364.34V191.37H1363.7V194.321H1359.3V191.37H1358.66V198ZM1366.76 198H1369.49C1370.95 198 1371.91 197.155 1371.91 195.868C1371.91 194.503 1370.75 193.918 1369.37 193.918H1367.4V191.37H1366.76V198ZM1367.4 197.428V194.49H1369.33C1370.49 194.49 1371.22 194.997 1371.22 195.894C1371.22 196.869 1370.5 197.428 1369.39 197.428H1367.4ZM1373.23 198H1373.87V191.37H1373.23V198ZM1375.67 198H1376.44L1378.78 195.049L1381.12 198H1381.91L1379.19 194.607L1381.81 191.37H1381.04L1378.8 194.178L1376.57 191.37H1375.77L1378.39 194.62L1375.67 198Z" fill="white"/>
<path d="M1234.78 199.729H1382.49V199.989H1234.78V199.729Z" fill="white"/>
<defs>
<radialGradient id="paint0_radial_1124_928" cx="0" cy="0" r="1" gradientUnits="userSpaceOnUse" gradientTransform="translate(830.5 333.215) rotate(-8.66021) scale(309.529 405.911)">
<stop stop-color="#3D568A"/>
<stop offset="1" stop-color="#0E2149"/>
</radialGradient>
<linearGradient id="paint1_linear_1124_928" x1="867.182" y1="63.0165" x2="798.434" y2="230.332" gradientUnits="userSpaceOnUse">
<stop stop-color="#D79F43"/>
<stop offset="1" stop-color="#C26D30"/>
</linearGradient>
<clipPath id="clip0_1124_928">
<rect width="182" height="179" fill="white" transform="translate(739 51)"/>
</clipPath>
</defs>
</svg>
